<?xml version="1.0" encoding="utf-8"?>
<!-- Generator: Adobe Illustrator 27.6.1, SVG Export Plug-In . SVG Version: 6.00 Build 0)  -->
<svg fill="#718040" version="1.1" id="Calque_1" xmlns="http://www.w3.org/2000/svg" xmlns:xlink="http://www.w3.org/1999/xlink" x="0px" y="0px"
	 viewBox="0 0 931 376" style="enable-background:new 0 0 931 376;" xml:space="preserve">
<g transform="translate(0.000000,836.000000) scale(0.100000,-0.100000)">
	<path d="M8280,8252.9c-69-30-128-58-133-63c-7-7,10-71,19-71c5,0,276,119,281,123c7,8-20,67-30,67
		C8410,8307.9,8349,8283.9,8280,8252.9z"/>
	<path d="M3387,8108.9c-78-20-144-67-175-125c-10-19-16-55-16-95c0-124,45-165,235-211c140-35,188-56,213-94c60-91,5-207-113-242
		c-101-29-212-2-299,73l-40,34l-27-32l-27-32l33-29c154-130,372-141,503-26c124,109,105,309-37,378c-23,11-94,32-156,46
		c-158,35-201,66-201,146c0,133,207,180,353,81l42-29l25,30l24,30l-34,29C3622,8097.9,3475,8130.9,3387,8108.9z"/>
	<path d="M5841,8107.9c-103-20-180-97-189-189c-13-139,43-198,225-240c141-33,179-48,213-86c25-29,30-43,30-88c0-66-28-111-88-144
		c-95-53-223-36-330,42l-60,44l-22-30l-22-30l29-30c15-16,60-45,99-64c173-86,382-38,457,106c25,48,28,64,25,120
		c-7,136-59,181-264,233c-72,18-143,41-158,51c-41,26-61,81-47,127c34,112,213,140,341,54l49-33l26,33l25,34l-28,19
		c-47,34-105,59-160,71C5932,8119.9,5904,8120.9,5841,8107.9z"/>
	<path d="M8897,8108.9c-131-33-211-138-192-253c18-109,74-146,285-191c41-9,93-26,114-39c108-61,96-211-21-269c-39-18-63-23-128-22
		c-88,0-151,25-218,84c-32,28-35,28-49,12c-43-52-44-48,22-97c151-111,351-113,474-5c124,110,105,310-37,379c-23,11-94,32-156,46
		c-158,35-201,66-201,146c0,131,209,179,353,80l42-28l25,30l24,30l-34,29C9132,8097.9,8985,8130.9,8897,8108.9z"/>
	<path d="M40,7684.9v-426h45h45v149v150l26,20c23,18,41,21,119,21c254,0,365,77,365,254c0,71-18,121-62,171c-59,67-97,76-335,82
		l-203,6V7684.9z M463,8004.9c61-30,82-69,82-153c0-57-4-77-21-100c-42-56-74-66-223-71c-75-2-144-9-153-14c-17-8-18,3-18,178v186
		l148-4C393,8023.9,433,8018.9,463,8004.9z"/>
	<path d="M955,8096.9c-3-7-72-192-155-412c-82-219-150-404-150-411s16-16,36-20c43-8,45-5,75,83c30,91,32,92,243,92
		c150,0,182-3,197-16c10-9,30-50,45-91l27-75l36,7c20,4,39,10,44,14c4,4-64,195-150,424l-157,417h-44
		C977,8108.9,958,8103.9,955,8096.9z M1103,7711.9l75-203h-174c-96,0-174,4-174,8c0,7,128,355,160,437l12,30l13-35
		C1022,7929.9,1062,7822.9,1103,7711.9z"/>
	<path d="M1480,7684.9v-426h244c224,0,245,1,250,18c2,9,7,27,11,40l6,22h-210h-211l-2,383l-3,382l-42,3l-43,3V7684.9z"/>
	<path d="M2380,8086.9c-41-92-307-814-302-820c4-3,23-9,42-13l36-6l23,68c40,116,34,113,246,113c129,0,186-4,198-12
		c10-7,30-47,47-88l29-75l37,2c21,2,41,6,45,10c4,5-64,195-150,423l-157,415l-42,3C2396,8109.9,2389,8106.9,2380,8086.9z
		 M2519,7739.9c45-123,80-225,78-227c-2-3-81-3-174-2l-170,3l86,232c47,128,88,229,92,225C2434,7966.9,2474,7862.9,2519,7739.9z"/>
	<path d="M2910,7683.9v-425h40h40v425v425h-40h-40V7683.9z"/>
	<path d="M4188,8103.9c-5-5-8-197-8-428v-420l168,5c139,4,176,9,223,27c143,55,203,150,216,346c15,240-62,395-224,445
		C4495,8099.9,4202,8118.9,4188,8103.9z M4554,7995.9c90-41,127-110,141-258c9-97-8-216-40-279c-45-89-118-119-287-120h-98v347v346
		l116-6C4478,8020.9,4513,8014.9,4554,7995.9z"/>
	<path d="M4970,7683.9v-425h270h270v40v40h-230h-230v134c0,188-9,180,202,186l163,5l3,38l3,39l-185-4l-186-3v142v143l218,2l217,3v40
		v40l-257,3l-258,2V7683.9z"/>
	<path d="M6520,8068.9v-40h125h125v-385v-385h45h45v385v385h120h120v40v40h-290h-290V8068.9z"/>
	<path d="M7247,8101.9c-4-3-7-195-7-425v-418h45h45v179v180l26,20c24,19,40,21,184,21s160-2,184-21l26-20v-180v-179h45h45l-2,423
		l-3,422l-42,3l-43,3v-196c0-195,0-196-21-185c-14,8-84,10-210,8l-189-3v188v187h-38C7271,8108.9,7250,8105.9,7247,8101.9z"/>
	<path d="M8037,8101.9c-4-3-7-195-7-425v-418h270h270v40v40h-225h-225v138c0,189-7,182,203,182h157v41v41l-180-4l-180-3v142v143
		l218,2l217,3v40v40l-256,3C8159,8107.9,8041,8105.9,8037,8101.9z"/>
	<path d="M4590,6844.9c-92-32-152-69-209-132c-94-103-128-211-138-438l-6-149l54,52c29,28,57,51,61,51c9,0,13-38,9-85
		c-2-35-31-69-74-86c-44-18-47-24-47-102v-69l58,52l57,51l8-40c12-61-11-107-67-131c-24-11-47-27-50-36s-6-62-6-119
		c0-218-57-383-181-527l-50-57l40,13c201,72,333,217,394,435c19,70,21,106,25,463l3,387l-50,25c-41,21-52,33-61,63c-7,23-8,53-3,76
		l8,37l56-53l55-53l12,76c15,93,65,199,128,269c25,28,44,51,42,50C4657,6867.9,4626,6857.9,4590,6844.9z"/>
	<path d="M4743,6839.9c-99-62-170-179-192-318l-7-49l50,48c28,26,54,48,58,48s8-15,9-32c3-87-9-109-78-139l-43-18v-340
		c0-187-5-375-11-418c-12-87-59-239-91-293c-109-182-268-288-498-331l-65-13l60-27c163-76,393-112,582-91c118,12,224,37,234,54
		c12,19,21,176,11,194c-5,9-29,26-53,38c-33,17-47,31-56,58c-11,35-7,108,6,108c3,0,30-23,59-52l52-51l-2,319l-3,318l-40,22
		c-52,29-72,49-78,82c-6,30,2,92,12,92c4,0,30-22,59-50l52-50v44c0,64,28,199,56,274c64,170,186,306,356,398l61,32l-44,25
		c-101,59-266,117-374,131C4785,6857.9,4769,6855.9,4743,6839.9z"/>
	<path d="M4317,6791.9c-164-85-277-216-334-388l-27-80l-4-396l-3-396l51,48c29,27,56,49,61,49c16,0,10-104-7-129c-9-12-35-31-59-41
		l-42-18l-6-108c-4-60-13-136-21-169s-12-62-9-65c2-3,36,28,75,68c118,124,169,257,184,478c9,134,5,148-51,173c-57,25-80,71-68,131
		l8,39l58-50l57-51v62c0,76-8,92-59,114c-51,23-75,70-66,127c4,21,10,39,14,39s30-22,58-49l51-48l4,171c4,150,8,181,31,252
		c32,95,106,206,168,253C4440,6850.9,4420,6845.9,4317,6791.9z"/>
	<path d="M4000,6650.9c-370-275-530-745-405-1189c31-109,108-267,171-352l48-64l14,34c30,70,43,137,49,246l6,111l-50,25
		c-65,33-86,82-67,154c5,20,7,20,23,5c10-10,34-32,54-50l35-32l4,387c4,357,6,394,26,464c24,89,66,176,114,240c37,48,51,69,46,69
		C4066,6698.9,4036,6676.9,4000,6650.9z"/>
	<path d="M5273,6595.9c-49-53-86-128-115-232c-20-74-22-107-26-436l-4-356l52,48c29,27,56,46,61,43c15-9,10-98-7-123
		c-9-12-36-31-60-41l-44-19v-128c0-70-3-146-6-168l-5-40l40,45c54,60,124,196,155,302c29,101,49,255,44,353l-3,70l-47,22
		c-58,28-70,49-66,119l3,55l58-51l57-52v69c0,76-5,87-38,97c-12,4-36,19-52,33c-27,22-30,31-30,84c0,32,3,59,8,59c4,0,31-22,60-49
		l52-48v94c0,52,7,126,16,166l17,71l-34,28c-18,15-36,28-40,28C5316,6638.9,5295,6619.9,5273,6595.9z"/>
	<path d="M5102,6533.9c-143-108-240-293-259-496l-9-86l51,49c27,26,53,48,57,48c3,0,9-17,13-39c9-56-13-103-61-125
		c-22-10-45-25-51-34c-10-12-13-93-13-325v-309l58,52l57,51l8-38c13-56-10-105-59-127c-22-10-45-25-51-34c-18-22-18-172,0-172
		c12,0,146,77,178,103c24,18,39,132,39,292v135l-27,12c-79,34-103,75-89,152l6,34l53-49l52-48l6,352c7,387,14,441,78,582
		c16,36,28,65,26,65C5164,6578.9,5135,6558.9,5102,6533.9z"/>
	<path d="M5444,6507.9c-5-8-10-67-12-132l-4-118l48,45c27,25,52,46,56,46c14,0,20-70,8-105c-9-28-22-41-61-60l-49-25v-71v-71l54,47
		l55,46l6-44c10-62-9-97-66-125l-46-23l-11-167c-20-304-88-474-263-666c-47-51-68-84-85-132c-27-79-92-181-145-229
		c-22-19-34-35-28-35c21,0,189,60,241,86c137,69,292,196,384,315c245,318,297,744,135,1118C5599,6352.9,5464,6538.9,5444,6507.9z"/>
	<path d="M4896,4899.9c-82-43-89-49-106-92c-9-25-31-67-49-92c-18-26-29-47-26-47s29,12,57,26c59,30,138,101,179,161
		c31,45,53,94,41,92C4988,4946.9,4945,4925.9,4896,4899.9z"/>
	<path d="M4078,4823.9c83-62,317-142,444-152l76-6l54,54c30,30,59,68,65,85l11,32l-51-14c-84-21-256-36-342-29c-78,6-228,30-263,42
		C4061,4838.9,4063,4835.9,4078,4823.9z"/>
</g>
</svg>
