<?xml version="1.0" encoding="UTF-8"?>
<svg id="logo" data-name="logo" xmlns="http://www.w3.org/2000/svg" xmlns:xlink="http://www.w3.org/1999/xlink" viewBox="0 0 519.27 536.3">
  <defs>
    <style>
      .cls-1 {
        clip-path: url(#clippath);
      }

      .cls-2 {
        fill: none;
      }

      .cls-3 {
        fill: #1d1d1b;
      }
    </style>
    <clipPath id="clippath">
      <rect class="cls-2" x="-42.85" y="-123.92" width="601.67" height="843.54"/>
    </clipPath>
  </defs>
  <polygon class="cls-3" points="99.88 261.06 105.98 261.06 105.98 318.67 129.47 318.67 129.47 324.03 99.88 324.03 99.88 261.06"/>
  <path class="cls-3" d="m156.29,301.84c-7.41.91-12.1,2.18-14.07,3.83-1.96,1.65-2.95,3.74-2.95,6.27,0,2.3.72,4.19,2.16,5.69,1.44,1.49,3.26,2.24,5.45,2.24,2.73,0,4.98-1.15,6.75-3.44,1.77-2.3,2.66-5.24,2.66-8.84v-5.75Zm-19.6-17.94c4.61-2.59,8.48-3.88,11.61-3.88,4.52,0,7.93,1.31,10.25,3.94,2.32,2.65,3.48,6.21,3.48,10.68v22.75c0,1.66.79,2.49,2.36,2.49.82,0,1.63-.23,2.45-.68v4.84c-1.45.68-2.94,1.02-4.45,1.02-3.94,0-5.97-2.3-6.09-6.9-1.47,2.28-3.11,4.01-4.91,5.16-1.8,1.16-3.75,1.74-5.86,1.74-3.42,0-6.29-1.25-8.6-3.74-2.31-2.5-3.47-5.55-3.47-9.15,0-3.82,1.43-6.99,4.3-9.52,2.87-2.53,9.05-4.24,18.54-5.14v-3.71c0-2.44-.79-4.45-2.37-6.03-1.58-1.58-3.54-2.37-5.88-2.37-3.33,0-7.12,1.66-11.36,4.99v-6.47Z"/>
  <path class="cls-3" d="m199.84,315.57c1.22,1.42,2.53,2.49,3.92,3.22s2.86,1.09,4.41,1.09c3.37,0,6.14-1.62,8.31-4.85,2.16-3.23,3.25-7.45,3.25-12.65,0-4.77-.95-8.83-2.84-12.17-1.9-3.34-4.41-5.01-7.54-5.01-2.75,0-5.02,1.32-6.81,3.97-1.79,2.64-2.69,5.69-2.69,9.13v17.27Zm0,28.53h-5.73v-63.06h5.18l.55,6.11c1.53-2.38,3.19-4.16,5-5.35,1.81-1.19,3.75-1.78,5.81-1.78,4.58,0,8.2,2.13,10.88,6.39,2.68,4.26,4.02,9.49,4.02,15.7,0,7.53-1.73,13.23-5.18,17.12-3.45,3.88-7.24,5.83-11.37,5.83-1.61,0-3.18-.34-4.71-1.03-1.53-.69-3.01-1.73-4.44-3.11v23.19Z"/>
  <path class="cls-3" d="m254.49,301.84c-7.41.91-12.1,2.18-14.07,3.83-1.96,1.65-2.95,3.74-2.95,6.27,0,2.3.72,4.19,2.16,5.69,1.44,1.49,3.26,2.24,5.45,2.24,2.73,0,4.98-1.15,6.75-3.44,1.77-2.3,2.66-5.24,2.66-8.84v-5.75Zm-19.6-17.94c4.61-2.59,8.48-3.88,11.61-3.88,4.52,0,7.93,1.31,10.25,3.94,2.32,2.65,3.48,6.21,3.48,10.68v22.75c0,1.66.79,2.49,2.36,2.49.82,0,1.63-.23,2.45-.68v4.84c-1.45.68-2.94,1.02-4.45,1.02-3.94,0-5.97-2.3-6.09-6.9-1.47,2.28-3.11,4.01-4.91,5.16-1.8,1.16-3.75,1.74-5.86,1.74-3.42,0-6.29-1.25-8.6-3.74-2.31-2.5-3.47-5.55-3.47-9.15,0-3.82,1.43-6.99,4.3-9.52,2.87-2.53,9.05-4.24,18.54-5.14v-3.71c0-2.44-.79-4.45-2.37-6.03-1.58-1.58-3.54-2.37-5.88-2.37-3.33,0-7.12,1.66-11.36,4.99v-6.47Z"/>
  <path class="cls-3" d="m273.16,268.18h5.1v12.85h8.14v4.9h-8.14v30.1c0,1.26.33,2.22.99,2.87.66.65,1.65.97,2.97.97,1.2,0,2.59-.48,4.18-1.44v5.61c-1.98.68-3.92,1.02-5.81,1.02-2.31,0-4.2-.68-5.67-2.03-1.47-1.36-2.2-3.41-2.2-6.15v-30.93h-5.83v-4.9h5.83l.45-12.85Z"/>
  <path class="cls-3" d="m295.35,268.18h5.1v12.85h8.14v4.9h-8.14v30.1c0,1.26.33,2.22.99,2.87.66.65,1.65.97,2.97.97,1.2,0,2.59-.48,4.18-1.44v5.61c-1.98.68-3.92,1.02-5.81,1.02-2.31,0-4.2-.68-5.67-2.03-1.47-1.36-2.2-3.41-2.2-6.15v-30.93h-5.83v-4.9h5.83l.45-12.85Z"/>
  <path class="cls-3" d="m339.28,295.92c-.12-3.58-1.04-6.26-2.75-8.04-1.71-1.79-3.71-2.68-6-2.68s-4.47.89-6.47,2.68c-2,1.79-3.42,4.47-4.26,8.04h19.48Zm4.62,23.54c-4.57,3.72-9.03,5.58-13.39,5.58-5.11,0-9.24-2.06-12.4-6.17-3.15-4.11-4.73-9.46-4.73-16.06s1.63-12.31,4.89-16.51c3.26-4.2,7.38-6.3,12.37-6.3,4.42,0,7.96,1.7,10.63,5.1,2.67,3.4,4.01,7.7,4.01,12.9v2.81h-26.08v2.2c0,5.56,1.16,9.76,3.49,12.59,2.33,2.84,5.05,4.26,8.18,4.26,4.33,0,8.67-2.4,13.02-7.21v6.81Z"/>
  <path class="cls-3" d="m225.28,400.21c-1.18-1.45-2.47-2.52-3.86-3.23-1.39-.71-2.91-1.06-4.54-1.06-3.36,0-6.16,1.6-8.4,4.79-2.24,3.19-3.36,7.41-3.36,12.66,0,4.91.98,8.98,2.95,12.21,1.97,3.22,4.48,4.84,7.54,4.84,2.69,0,4.98-1.19,6.85-3.57,1.88-2.38,2.82-5.4,2.82-9.04v-17.59Zm0-28.61h5.73v62.97h-5.73v-6.01c-1.42,2.34-3.03,4.1-4.83,5.28-1.8,1.17-3.77,1.76-5.92,1.76-4.53,0-8.21-2.22-11.02-6.66-2.81-4.44-4.22-9.61-4.22-15.52,0-6.32,1.55-11.71,4.65-16.17,3.1-4.46,7.04-6.69,11.81-6.69,1.54,0,3.11.35,4.69,1.04,1.59.69,3.2,1.74,4.83,3.15v-23.15Z"/>
  <path class="cls-3" d="m264.67,406.46c-.12-3.58-1.04-6.26-2.75-8.04-1.71-1.79-3.71-2.68-6-2.68s-4.47.89-6.47,2.68c-2,1.79-3.42,4.47-4.26,8.04h19.48Zm4.62,23.54c-4.57,3.72-9.03,5.58-13.39,5.58-5.11,0-9.24-2.06-12.4-6.17-3.15-4.11-4.73-9.46-4.73-16.06s1.63-12.31,4.89-16.51c3.26-4.2,7.38-6.3,12.37-6.3,4.42,0,7.96,1.7,10.63,5.1,2.67,3.4,4.01,7.7,4.01,12.9v2.81h-26.08v2.2c0,5.56,1.16,9.76,3.49,12.59,2.33,2.84,5.05,4.26,8.18,4.26,4.33,0,8.67-2.4,13.02-7.21v6.81Z"/>
  <polygon class="cls-3" points="294.72 391.57 300.92 391.57 311.04 427.44 320.89 391.57 327 391.57 313.66 434.57 308.16 434.57 294.72 391.57"/>
  <path class="cls-3" d="m356.12,406.46c-.12-3.58-1.04-6.26-2.75-8.04s-3.71-2.68-6-2.68-4.47.89-6.47,2.68c-2,1.79-3.42,4.47-4.26,8.04h19.48Zm4.62,23.54c-4.57,3.72-9.03,5.58-13.39,5.58-5.11,0-9.24-2.06-12.4-6.17-3.15-4.11-4.73-9.46-4.73-16.06s1.63-12.31,4.89-16.51c3.26-4.2,7.38-6.3,12.37-6.3,4.42,0,7.96,1.7,10.63,5.1,2.67,3.4,4.01,7.7,4.01,12.9v2.81h-26.08v2.2c0,5.56,1.16,9.76,3.49,12.59,2.33,2.84,5.05,4.26,8.18,4.26,4.33,0,8.67-2.4,13.02-7.21v6.81Z"/>
  <rect class="cls-3" x="369.9" y="371.6" width="5.73" height="62.97"/>
  <path class="cls-3" d="m400.57,395.92c-3.78,0-6.62,1.6-8.53,4.79s-2.86,7.54-2.86,13.05c0,4.73.94,8.68,2.81,11.87,1.88,3.19,4.51,4.79,7.89,4.79,3.21,0,5.84-1.48,7.92-4.45,2.07-2.96,3.11-7.29,3.11-12.98s-1.01-9.62-3.04-12.59c-2.03-2.98-4.46-4.47-7.3-4.47Zm-.39-5.36c4.72,0,8.66,2.06,11.82,6.17,3.16,4.11,4.74,9.55,4.74,16.33,0,3.91-.62,7.61-1.87,11.09-1.25,3.48-3.18,6.26-5.8,8.33-2.62,2.08-5.65,3.12-9.11,3.12-5.14,0-9.2-2.12-12.16-6.37-2.96-4.25-4.44-9.56-4.44-15.94,0-5.09.93-9.49,2.8-13.19,1.86-3.7,4.14-6.22,6.83-7.54,2.69-1.33,5.09-1.99,7.2-1.99Z"/>
  <path class="cls-3" d="m447.44,391.57h5.73v43h-5.73v-5.88c-1.59,2.28-3.33,4-5.23,5.16-1.89,1.16-3.93,1.74-6.13,1.74-3.67,0-6.53-1.25-8.58-3.75-2.06-2.5-3.09-5.84-3.09-10.02v-30.25h5.73v30.26c0,2.86.6,5.01,1.79,6.44,1.19,1.43,2.98,2.14,5.36,2.14,2.98,0,5.41-1.27,7.31-3.82,1.89-2.54,2.84-5.82,2.84-9.82v-25.2Z"/>
  <path class="cls-3" d="m469.31,397.97c1.36-2.49,2.87-4.35,4.55-5.57,1.67-1.23,3.5-1.84,5.49-1.84,1.48,0,2.97.33,4.48,1v5.36c-1.75-.66-3.23-.99-4.43-.99-2.86,0-5.26,1.34-7.19,4.01-1.93,2.68-2.89,5.74-2.89,9.2v25.44h-5.55v-43h5.05l.5,6.4Z"/>
  <path class="cls-3" d="m491.16,425.23c4.22,3.45,8.24,5.18,12.07,5.18,2.95,0,5.39-.75,7.32-2.25,1.93-1.5,2.89-3.4,2.89-5.69,0-1.66-.65-3.05-1.94-4.17-1.29-1.12-3.77-2.22-7.44-3.3-4.51-1.36-7.81-2.91-9.88-4.65-2.08-1.75-3.11-4.17-3.11-7.27,0-3.55,1.4-6.53,4.2-8.92,2.8-2.39,6.27-3.59,10.39-3.59,3.31,0,7.08,1.17,11.3,3.51v6.39c-3.61-3.14-7.31-4.72-11.1-4.72-2.61,0-4.75.7-6.44,2.09-1.68,1.39-2.53,3.07-2.53,5.04,0,1.66.77,3.03,2.32,4.08,1.52,1.09,3.99,2.12,7.42,3.09,8.42,2.37,12.63,6.38,12.64,12.03,0,3.82-1.54,7.03-4.62,9.63-3.08,2.6-6.82,3.9-11.21,3.9-4.06,0-8.15-1.32-12.27-3.95v-6.41Z"/>
  <g class="cls-1">
    <path class="cls-3" d="m48.78,2.18c9.2,3.19,16.06,10.41,21.22,19.31,2.45,4.23,4.91,6.22,9.87,4.17,11.01-4.55,21.84-3.55,32.12,2.19,5.13,2.86,7.5.78,9.32-3.84,2.97-7.53,6.12-15,9.66-23.65,10.76,10.37,12.12,22.8,13.47,34.82,2.72,24.13-.57,47.32-12.13,69.17-5.85,11.05-6.74,23.01-3.07,35.17.8,2.65,1.06,5.46,2.01,10.54-13.18-13.52-15.31-33.41-6.46-51.41,8.61-17.5,12.96-35.73,11.88-55.18-.35-6.24-1.31-12.44-2.23-20.82-2.21,3.89-3.5,5.9-4.53,8.03-3.49,7.27-8.17,9.68-16.04,5.58-10.61-5.52-21.65-4.66-32.18.5-6.5,3.18-10.27,2.04-13.54-4.67-3.11-6.38-7.66-12.06-10.83-16.9-2,14.19-3.83,28.46-6.07,42.66-2.35,14.87-1.39,29.21,6.37,42.42,12.48,21.25,12.25,42.73,2.13,64.68-10.35,22.45-21.47,44.62-30.55,67.58-9.07,22.93-9.87,47.13-4.49,71.22,8.23,36.91,38.09,73.97,93.22,65.84,5.89-.87,11.12-1.39,11.22,7.83-26.35,6.77-51.27,3.91-73.11-12.75-34.38-26.23-46.71-62.08-42.79-104.27,2.74-29.47,15.24-55.37,28.99-80.96,5.68-10.57,10.22-21.79,14.75-32.93,5.39-13.26,3.75-26.55-3.31-38.5-11.16-18.88-12.78-38.5-9.13-59.67,2.6-15.08,2.87-30.55,4.2-46.17"/>
    <path class="cls-3" d="m61.16,517.08c-5.89,14.67-21.98,22.02-37.66,17.38-16.37-4.84-25.83-21-21.91-38.15,4.31-18.83,16.46-31.04,33.93-38.38,21.96-9.24,44.98-9.89,68.37-8.93,12.97.53,26.24.55,38.99-1.54,17.99-2.94,28.09-15.73,31.57-32.87,3.63-17.88.42-34.45-15.59-45.83-7.37-5.24-15.67-9.18-23.55-13.71.2-.78.4-1.56.6-2.34,4.8,1.04,9.76,1.62,14.37,3.19,24.7,8.41,39.3,31.23,36.13,56.04-2.97,23.27-22.94,42.2-48.27,43.83-23.8,1.53-47.72,1.24-71.57,2.11-17.52.64-32.93,6.48-44.77,20.03-8,9.16-11.19,19.79-9.59,31.76,1.28,9.55,7.32,15.52,16.13,18.13,8.17,2.42,15.1-.86,20.1-7.55,3.53-4.73,6.77-8.88,12.71-3.17"/>
  </g>
</svg>
