<?xml version="1.0" encoding="utf-8"?>
<!-- Generator: Adobe Illustrator 27.6.1, SVG Export Plug-In . SVG Version: 6.00 Build 0)  -->
<svg version="1.1" id="Calque_1" xmlns="http://www.w3.org/2000/svg" xmlns:xlink="http://www.w3.org/1999/xlink" x="0px" y="0px"
	 viewBox="0 0 414.7 78.4" style="enable-background:new 0 0 414.7 78.4;" xml:space="preserve">
<g transform="translate(0.000000,450.000000) scale(0.100000,-0.100000)">
	<path d="M3013.7,4469.1c0-6,14-29,30-52l30-41v29c0,53-11,74-36,74C3024.7,4479.1,3013.7,4474.1,3013.7,4469.1z"/>
	<path d="M1650.7,4349.1c-40-12-57-29-78-75c-39-85-16-215,47-264c24-19,36-22,79-16c27,3,67,7,88,7l37,2v69c0,60,2,70,20,74
		c43,11,17,20-60,20s-103-9-60-20c29-7,29-106,0-132c-47-42-80,22-79,152c0,94,14,150,40,166c25,16,64-14,93-71l25-47l1,63
		c0,61-6,72-27,51c-8-8-17-7-34,4C1708.7,4354.1,1682.7,4358.1,1650.7,4349.1z M1640.7,4321.1c-10-10-14-22-10-25c3-4-5-7-18-7h-24
		l29,25C1651.7,4343.1,1663.7,4347.1,1640.7,4321.1z M1618.7,4259.1c-3-5-13-10-21-10s-14,5-14,10c0,6,9,10,21,10
		C1615.7,4269.1,1621.7,4265.1,1618.7,4259.1z M1613.7,4229.1c0-5-9-10-20-10s-20,5-20,10c0,6,9,10,20,10
		S1613.7,4235.1,1613.7,4229.1z M1613.7,4199.1c0-5-11-10-25-10s-25,5-25,10c0,6,11,10,25,10S1613.7,4205.1,1613.7,4199.1z
		 M1613.7,4169.1c0-5-11-10-25-10s-25,5-25,10c0,6,11,10,25,10S1613.7,4175.1,1613.7,4169.1z M1613.7,4139.1c0-5-11-10-25-10
		s-25,5-25,10c0,6,11,10,25,10S1613.7,4145.1,1613.7,4139.1z M1791.7,4142.1c-10-2-26-2-35,0c-10,3-2,5,17,5
		S1800.7,4145.1,1791.7,4142.1z M1793.7,4119.1c0-5-9-10-20-10s-20,5-20,10c0,6,9,10,20,10S1793.7,4125.1,1793.7,4119.1z
		 M1613.7,4109.1c0-5-9-10-20-10s-20,5-20,10c0,6,9,10,20,10S1613.7,4115.1,1613.7,4109.1z M1793.7,4087.1c0-4-9-8-21-8
		c-11,0-18,4-15,8c3,5,12,9,21,9C1786.7,4096.1,1793.7,4092.1,1793.7,4087.1z M1618.7,4079.1c3-5-3-10-14-10c-12,0-21,5-21,10
		c0,6,6,10,14,10S1615.7,4085.1,1618.7,4079.1z M1621.7,4048.1c-2-3,4-14,12-25c14-19,14-19-8,0c-23,20-30,40-11,34
		C1620.7,4055.1,1623.7,4051.1,1621.7,4048.1z M1790.7,4039.1c-1-15-8-20-27-19c-23,0-23,1-5,9c11,5,14,9,8,9c-21,1-15,21,6,21
		C1786.7,4059.1,1791.7,4053.1,1790.7,4039.1z"/>
	<path d="M3933.7,4342.1c-21-11-34-25-34-35c1-10-2-16-6-13c-9,6-20-30-20-68c0-64,43-102,140-122c52-10,80-32,80-60
		c0-26-25-45-61-45c-37,0-89,40-119,94c-29,50-30,51-30,19c0-17,5-35,10-38c6-3,10-11,10-16c0-6-4-7-10-4c-5,3-10-1-10-10
		s5-13,10-10c6,3,10,1,10-4c0-6-4-11-10-11c-5,0-10-8-10-17c1-14,6-12,24,11l24,29l23-22c50-47,137-42,164,8c19,39,19,115,0,145
		c-17,26-39,36-128,61c-68,20-87,44-62,81c31,48,117,18,155-56c11-22,23-40,25-40c3,0,5,30,5,67v67l-22-21c-21-22-22-22-48-3
		C4002.7,4358.1,3972.7,4361.1,3933.7,4342.1z M3913.7,4229.1c0-5-7-10-15-10s-15,5-15,10c0,6,7,10,15,10
		S3913.7,4235.1,3913.7,4229.1z M3968.7,4199.1c15-6,8-9-27-9c-26-1-50,4-53,9C3880.7,4211.1,3940.7,4211.1,3968.7,4199.1z
		 M4073.7,4169.1c10-7-14-10-77-10c-51,0-95,4-98,10C3890.7,4182.1,4053.7,4182.1,4073.7,4169.1z M4103.7,4139.1c0-13-140-13-160,0
		c-10,7,12,10,73,10C4067.7,4149.1,4103.7,4145.1,4103.7,4139.1z M4113.7,4109.1c0-13-40-13-60,0c-11,7-5,10,23,10
		C4096.7,4119.1,4113.7,4115.1,4113.7,4109.1z M4113.7,4079.1c0-5-2-10-4-10c-3,0-8,5-11,10c-3,6-1,10,4,10
		C4108.7,4089.1,4113.7,4085.1,4113.7,4079.1z"/>
	<path d="M351.7,4341.1l-58-3l-31-100c-18-55-35-96-39-92s-22,50-41,101l-33,92h-66c-59,0-63-1-40-13c24-12,25-16,28-127
		c3-130,0-152-28-180c-20-20-20-20,35-20h54l-24,25c-23,22-25,31-25,126c0,56,2,100,5,97c3-2,25-58,50-123c43-114,52-133,58-124
		c1,2,23,67,49,144l47,140l-2-135c-2-134-2-134-27-141c-14-4,44-7,129-8c147-1,152,0,133,17c-12,9-24,29-28,45c-6,27-6,27,44,27
		c48,0,51-1,57-32c6-24,3-35-11-45c-15-11,9-13,151-13s166,2,151,13c-17,12-21,50-17,135c2,29,18-1,41-72l24-76h54c53,0,54,1,34,18
		c-11,9-29,45-40,79l-20,62l23,15c41,27,46,114,9,150c-12,13-39,16-137,15c-67-1-113-4-102-6c11-3,23-10,27-17c4-6,8-72,8-146
		c0-147-4-160-52-160c-34,0-40,10-103,195c-27,77-50,142-52,145c-8,9-23-25-19-43c2-9,1-15-4-12c-4,2-26-52-50-120
		c-23-69-46-128-51-131s-9-10-9-15c0-6,4-8,9-4c5,3,12,1,15-4s-18-8-47-7l-52,1v155v154l25,6
		C441.7,4338.1,414.7,4344.1,351.7,4341.1z M123.7,4325.1c0-9-40-13-46-5c-3,5,6,9,20,9S123.7,4327.1,123.7,4325.1z M346.7,4322.1
		c-7-2-21-2-30,0c-10,3-4,5,12,5C345.7,4327.1,352.7,4325.1,346.7,4322.1z M836.7,4322.1c-7-2-21-2-30,0c-10,3-4,5,12,5
		C835.7,4327.1,842.7,4325.1,836.7,4322.1z M923.7,4310.1c16-31,12-102-7-123c-29-33-45-23-45,27c0,101,2,115,22,115
		C903.7,4329.1,917.7,4320.1,923.7,4310.1z M956.7,4312.1c-4-10-2-14,5-9c6,3,13,2,17-4c3-5-3-10-13-10c-11,0-22,9-25,20
		c-3,13,0,20,9,20C957.7,4329.1,960.7,4323.1,956.7,4312.1z M117.7,4289.1c-10-4-23-5-28-2s-1,9,10,12c10,4,23,5,28,2
		S128.7,4292.1,117.7,4289.1z M336.7,4292.1c-7-2-19-2-25,0c-7,3-2,5,12,5S342.7,4295.1,336.7,4292.1z M836.7,4292.1c-7-2-19-2-25,0
		c-7,3-2,5,12,5S842.7,4295.1,836.7,4292.1z M143.7,4261.1c0-11-39-12-45-1c-4,5,5,9,19,9S143.7,4265.1,143.7,4261.1z M343.7,4259.1
		c0-5-6-10-14-10s-18,5-21,10c-3,6,3,10,14,10C334.7,4269.1,343.7,4265.1,343.7,4259.1z M583.7,4259.1c0-5-4-10-9-10
		c-6,0-13,5-16,10c-3,6,1,10,9,10C576.7,4269.1,583.7,4265.1,583.7,4259.1z M838.7,4259.1c-3-5-13-10-21-10s-14,5-14,10
		c0,6,9,10,21,10C835.7,4269.1,841.7,4265.1,838.7,4259.1z M993.7,4259.1c0-5-9-10-20-10s-20,5-20,10c0,6,9,10,20,10
		S993.7,4265.1,993.7,4259.1z M153.7,4229.1c0-5-9-10-20-10s-20,5-20,10c0,6,9,10,20,10S153.7,4235.1,153.7,4229.1z M343.7,4229.1
		c0-5-6-10-14-10s-18,5-21,10c-3,6,3,10,14,10C334.7,4239.1,343.7,4235.1,343.7,4229.1z M593.7,4229.1c0-5-9-10-20-10s-20,5-20,10
		c0,6,9,10,20,10S593.7,4235.1,593.7,4229.1z M843.7,4229.1c0-5-9-10-20-10s-20,5-20,10c0,6,9,10,20,10S843.7,4235.1,843.7,4229.1z
		 M993.7,4229.1c0-5-9-10-20-10s-20,5-20,10c0,6,9,10,20,10S993.7,4235.1,993.7,4229.1z M168.7,4199.1c4-6-5-10-19-10s-26,5-26,10
		c0,6,9,10,19,10C153.7,4209.1,165.7,4205.1,168.7,4199.1z M343.7,4199.1c0-5-6-10-14-10s-18,5-21,10c-3,6,3,10,14,10
		C334.7,4209.1,343.7,4205.1,343.7,4199.1z M553.7,4184.1c5-14,13-37,16-50c6-23,3-25-29-25h-35l16,50c9,28,17,50,19,50
		S548.7,4198.1,553.7,4184.1z M603.7,4199.1c0-5-9-10-20-10s-20,5-20,10c0,6,9,10,20,10S603.7,4205.1,603.7,4199.1z M843.7,4199.1
		c0-5-9-10-20-10s-20,5-20,10c0,6,9,10,20,10S843.7,4205.1,843.7,4199.1z M978.7,4199.1c-3-5-13-10-21-10s-14,5-14,10
		c0,6,9,10,21,10C975.7,4209.1,981.7,4205.1,978.7,4199.1z M178.7,4169.1c4-6-5-10-19-10s-26,5-26,10c0,6,9,10,19,10
		C163.7,4179.1,175.7,4175.1,178.7,4169.1z M343.7,4169.1c0-5-9-10-20-10s-20,5-20,10c0,6,9,10,20,10S343.7,4175.1,343.7,4169.1z
		 M618.7,4169.1c4-6-5-10-19-10s-26,5-26,10c0,6,9,10,19,10C603.7,4179.1,615.7,4175.1,618.7,4169.1z M843.7,4169.1c0-5-9-10-20-10
		s-20,5-20,10c0,6,9,10,20,10S843.7,4175.1,843.7,4169.1z M948.7,4169.1c-3-5-13-10-21-10s-12,5-9,10c3,6,13,10,21,10
		S951.7,4175.1,948.7,4169.1z M188.7,4139.1c4-6-5-10-19-10s-26,5-26,10c0,6,9,10,19,10C173.7,4149.1,185.7,4145.1,188.7,4139.1z
		 M343.7,4139.1c0-5-9-10-20-10s-20,5-20,10c0,6,9,10,20,10S343.7,4145.1,343.7,4139.1z M628.7,4139.1c4-6-5-10-19-10s-26,5-26,10
		c0,6,9,10,19,10C613.7,4149.1,625.7,4145.1,628.7,4139.1z M843.7,4139.1c0-5-9-10-20-10s-20,5-20,10c0,6,9,10,20,10
		S843.7,4145.1,843.7,4139.1z M943.7,4139.1c0-5-9-10-20-10s-20,5-20,10c0,6,9,10,20,10S943.7,4145.1,943.7,4139.1z M203.7,4109.1
		c0-5-11-10-25-10s-25,5-25,10c0,6,11,10,25,10S203.7,4115.1,203.7,4109.1z M343.7,4109.1c0-5-9-10-21-10c-11,0-17,5-14,10
		c3,6,13,10,21,10S343.7,4115.1,343.7,4109.1z M638.7,4109.1c4-6-5-10-19-10s-26,5-26,10c0,6,9,10,19,10
		C623.7,4119.1,635.7,4115.1,638.7,4109.1z M843.7,4109.1c0-5-9-10-20-10s-20,5-20,10c0,6,9,10,20,10S843.7,4115.1,843.7,4109.1z
		 M953.7,4109.1c0-5-9-10-20-10s-20,5-20,10c0,6,9,10,20,10S953.7,4115.1,953.7,4109.1z M213.7,4079.1c0-5-9-10-20-10s-20,5-20,10
		c0,6,9,10,20,10S213.7,4085.1,213.7,4079.1z M343.7,4079.1c0-5-9-10-21-10c-11,0-17,5-14,10c3,6,13,10,21,10
		S343.7,4085.1,343.7,4079.1z M648.7,4079.1c4-6-5-10-19-10s-26,5-26,10c0,6,9,10,19,10C633.7,4089.1,645.7,4085.1,648.7,4079.1z
		 M843.7,4079.1c0-5-9-10-20-10s-20,5-20,10c0,6,9,10,20,10S843.7,4085.1,843.7,4079.1z M958.7,4079.1c3-5-3-10-14-10
		c-12,0-21,5-21,10c0,6,6,10,14,10S955.7,4085.1,958.7,4079.1z M198.7,4049.1c3-5,1-10-4-10c-6,0-11,5-11,10c0,6,2,10,4,10
		C190.7,4059.1,195.7,4055.1,198.7,4049.1z M343.7,4049.1c0-5-9-10-21-10c-11,0-17,5-14,10c3,6,13,10,21,10
		S343.7,4055.1,343.7,4049.1z M659.7,4046.1c4-4-5-7-19-7c-15,0-27,4-27,10C613.7,4060.1,648.7,4057.1,659.7,4046.1z M838.7,4049.1
		c3-5-3-10-14-10c-12,0-21,5-21,10c0,6,6,10,14,10S835.7,4055.1,838.7,4049.1z M968.7,4049.1c3-5-3-10-14-10c-12,0-21,5-21,10
		c0,6,6,10,14,10S965.7,4055.1,968.7,4049.1z M346.7,4012.1c-7-2-21-2-30,0c-10,3-4,5,12,5C345.7,4017.1,352.7,4015.1,346.7,4012.1z
		 M661.7,4012.1c-10-2-26-2-35,0c-10,3-2,5,17,5S670.7,4015.1,661.7,4012.1z M836.7,4012.1c-7-2-21-2-30,0c-10,3-4,5,12,5
		C835.7,4017.1,842.7,4015.1,836.7,4012.1z M976.7,4012.1c-7-2-19-2-25,0c-7,3-2,5,12,5S982.7,4015.1,976.7,4012.1z"/>
	<path d="M1143.7,4339.1c-47-3-74-7-60-10l25-5v-155v-154l-25-7c-14-4,43-7,127-8l152-1l-24,25c-14,13-25,33-25,45c0,17,6,20,50,20
		c33,0,50-4,50-12c0-7,3-23,6-35c5-18,1-25-17-32s-2-10,65-10c85-1,87,0,68,17c-12,10-42,80-73,172c-29,85-54,157-56,160
		c-8,9-23-25-19-43c2-9,1-15-4-12c-4,2-22-39-40-93c-18-53-41-115-51-136c-22-45-23-49-10-41c5,3,12,1,15-4s-18-8-47-7l-52,1v155
		v154l25,6C1267.7,4339.1,1230.7,4344.1,1143.7,4339.1z M1169.7,4320.1c-3-5-15-7-26-4c-28,7-25,13,6,13
		C1163.7,4329.1,1172.7,4325.1,1169.7,4320.1z M1156.7,4292.1c-7-2-19-2-25,0c-7,3-2,5,12,5S1162.7,4295.1,1156.7,4292.1z
		 M1163.7,4259.1c0-5-6-10-14-10s-18,5-21,10c-3,6,3,10,14,10C1154.7,4269.1,1163.7,4265.1,1163.7,4259.1z M1403.7,4259.1
		c0-5-4-10-9-10c-6,0-13,5-16,10c-3,6,1,10,9,10C1396.7,4269.1,1403.7,4265.1,1403.7,4259.1z M1163.7,4229.1c0-5-6-10-14-10
		s-18,5-21,10c-3,6,3,10,14,10C1154.7,4239.1,1163.7,4235.1,1163.7,4229.1z M1413.7,4229.1c0-5-9-10-20-10s-20,5-20,10
		c0,6,9,10,20,10S1413.7,4235.1,1413.7,4229.1z M1163.7,4199.1c0-5-9-10-20-10s-20,5-20,10c0,6,9,10,20,10
		S1163.7,4205.1,1163.7,4199.1z M1373.7,4184.1c5-14,13-37,16-50c6-23,3-25-29-25h-35l16,50c9,28,17,50,19,50
		S1368.7,4198.1,1373.7,4184.1z M1423.7,4199.1c0-5-9-10-20-10s-20,5-20,10c0,6,9,10,20,10S1423.7,4205.1,1423.7,4199.1z
		 M1163.7,4169.1c0-5-9-10-20-10s-20,5-20,10c0,6,9,10,20,10S1163.7,4175.1,1163.7,4169.1z M1438.7,4169.1c4-6-5-10-19-10
		s-26,5-26,10c0,6,9,10,19,10C1423.7,4179.1,1435.7,4175.1,1438.7,4169.1z M1163.7,4139.1c0-5-9-10-20-10s-20,5-20,10
		c0,6,9,10,20,10S1163.7,4145.1,1163.7,4139.1z M1448.7,4139.1c4-6-5-10-19-10s-26,5-26,10c0,6,9,10,19,10
		C1433.7,4149.1,1445.7,4145.1,1448.7,4139.1z M1163.7,4109.1c0-5-9-10-20-10s-20,5-20,10c0,6,9,10,20,10
		S1163.7,4115.1,1163.7,4109.1z M1458.7,4109.1c4-6-5-10-19-10s-26,5-26,10c0,6,9,10,19,10
		C1443.7,4119.1,1455.7,4115.1,1458.7,4109.1z M1163.7,4079.1c0-5-9-10-21-10c-11,0-17,5-14,10c3,6,13,10,21,10
		S1163.7,4085.1,1163.7,4079.1z M1468.7,4079.1c4-6-5-10-19-10s-26,5-26,10c0,6,9,10,19,10
		C1453.7,4089.1,1465.7,4085.1,1468.7,4079.1z M1163.7,4049.1c0-5-9-10-21-10c-11,0-17,5-14,10c3,6,13,10,21,10
		S1163.7,4055.1,1163.7,4049.1z M1478.7,4049.1c4-6-5-10-19-10s-26,5-26,10c0,6,9,10,19,10
		C1463.7,4059.1,1475.7,4055.1,1478.7,4049.1z M1166.7,4012.1c-7-2-21-2-30,0c-10,3-4,5,12,5
		C1165.7,4017.1,1172.7,4015.1,1166.7,4012.1z M1481.7,4012.1c-10-2-26-2-35,0c-10,3-2,5,17,5S1490.7,4015.1,1481.7,4012.1z"/>
	<path d="M3226.7,4337.1c-2-5,5-8,15-8c11,0,23-7,26-16c9-22,7-277-2-290c-4-7-16-14-27-17c-11-2,21-5,70-5c63-1,83,2,68,8
		c-21,9-23,16-23,81c0,40,3,69,7,65c5-4,20-40,34-79l26-72l54-3c47-3,52-1,36,10c-10,7-28,42-41,78l-24,64l29,27c21,20,29,36,29,63
		c0,47-19,85-44,91C3422.7,4342.1,3231.7,4344.1,3226.7,4337.1z M3323.7,4325.1c0-9-40-13-46-5c-3,5,6,9,20,9
		S3323.7,4327.1,3323.7,4325.1z M3401.7,4316.1c26-31,19-120-10-139c-32-20-38-9-38,72c0,72,2,80,19,80
		C3382.7,4329.1,3395.7,4323.1,3401.7,4316.1z M3443.7,4319.1c0-5-4-10-9-10c-6,0-13,5-16,10c-3,6,1,10,9,10
		C3436.7,4329.1,3443.7,4325.1,3443.7,4319.1z M3463.7,4299.1c0-5-10-10-22-10c-19,0-20,2-8,10
		C3452.7,4312.1,3463.7,4312.1,3463.7,4299.1z M3316.7,4292.1c-7-2-19-2-25,0c-7,3-2,5,12,5S3322.7,4295.1,3316.7,4292.1z
		 M3323.7,4259.1c0-5-6-10-14-10s-18,5-21,10c-3,6,3,10,14,10C3314.7,4269.1,3323.7,4265.1,3323.7,4259.1z M3473.7,4259.1
		c0-5-9-10-20-10s-20,5-20,10c0,6,9,10,20,10S3473.7,4265.1,3473.7,4259.1z M3323.7,4229.1c0-5-9-10-20-10s-20,5-20,10
		c0,6,9,10,20,10S3323.7,4235.1,3323.7,4229.1z M3473.7,4229.1c0-5-9-10-20-10s-20,5-20,10c0,6,9,10,20,10
		S3473.7,4235.1,3473.7,4229.1z M3323.7,4199.1c0-5-9-10-20-10s-20,5-20,10c0,6,9,10,20,10S3323.7,4205.1,3323.7,4199.1z
		 M3463.7,4199.1c0-5-9-10-20-10s-20,5-20,10c0,6,9,10,20,10S3463.7,4205.1,3463.7,4199.1z M3323.7,4169.1c0-5-9-10-20-10
		s-20,5-20,10c0,6,9,10,20,10S3323.7,4175.1,3323.7,4169.1z M3428.7,4169.1c-3-5-14-10-23-10c-15,0-15,2-2,10
		C3423.7,4182.1,3436.7,4182.1,3428.7,4169.1z M3323.7,4139.1c0-5-9-10-20-10s-20,5-20,10c0,6,9,10,20,10
		S3323.7,4145.1,3323.7,4139.1z M3423.7,4139.1c0-5-9-10-20-10s-20,5-20,10c0,6,9,10,20,10S3423.7,4145.1,3423.7,4139.1z
		 M3323.7,4109.1c0-5-9-10-20-10s-20,5-20,10c0,6,9,10,20,10S3323.7,4115.1,3323.7,4109.1z M3433.7,4109.1c0-5-9-10-20-10
		s-20,5-20,10c0,6,9,10,20,10S3433.7,4115.1,3433.7,4109.1z M3323.7,4079.1c0-5-9-10-20-10s-20,5-20,10c0,6,9,10,20,10
		S3323.7,4085.1,3323.7,4079.1z M3443.7,4079.1c0-5-9-10-21-10c-11,0-17,5-14,10c3,6,13,10,21,10S3443.7,4085.1,3443.7,4079.1z
		 M3323.7,4049.1c0-5-9-10-21-10c-11,0-17,5-14,10c3,6,13,10,21,10S3323.7,4055.1,3323.7,4049.1z M3453.7,4049.1c0-5-9-10-21-10
		c-11,0-17,5-14,10c3,6,13,10,21,10S3453.7,4055.1,3453.7,4049.1z M3316.7,4012.1c-7-2-21-2-30,0c-10,3-4,5,12,5
		C3315.7,4017.1,3322.7,4015.1,3316.7,4012.1z M3456.7,4012.1c-7-2-19-2-25,0c-7,3-2,5,12,5S3462.7,4015.1,3456.7,4012.1z"/>
	<path d="M1886.7,4333.1c3-4,28-7,54-7s36-2,21-4l-28-4v-149v-149l28-4c15-2,5-4-21-4s-51-3-54-7c-4-3,57-6,135-6h142v60
		c0,33-3,60-8,60c-4,0-16-16-27-36c-24-44-60-74-91-74c-23,0-24,3-24,80c0,91,15,105,50,48c11-18,20-31,21-28c2,26,3,130,0,130
		c-2,0-12-11-23-25c-35-45-48-33-48,45v70h28c31,0,57-23,91-80l21-35v63v62h-137C1941.7,4339.1,1882.7,4336.1,1886.7,4333.1z
		 M2133.7,4319.1c0-5-6-10-14-10s-18,5-21,10c-3,6,3,10,14,10C2124.7,4329.1,2133.7,4325.1,2133.7,4319.1z M1976.7,4292.1
		c-7-2-19-2-25,0c-7,3-2,5,12,5S1982.7,4295.1,1976.7,4292.1z M2133.7,4289.1c0-5-2-10-4-10c-3,0-8,5-11,10c-3,6-1,10,4,10
		C2128.7,4299.1,2133.7,4295.1,2133.7,4289.1z M1983.7,4259.1c0-5-6-10-14-10s-18,5-21,10c-3,6,3,10,14,10
		C1974.7,4269.1,1983.7,4265.1,1983.7,4259.1z M1983.7,4229.1c0-5-6-10-14-10s-18,5-21,10c-3,6,3,10,14,10
		C1974.7,4239.1,1983.7,4235.1,1983.7,4229.1z M1983.7,4199.1c0-5-9-10-20-10s-20,5-20,10c0,6,9,10,20,10
		S1983.7,4205.1,1983.7,4199.1z M2069.7,4179.1c0-11-4-20-8-20c-10,0-11,24-1,33C2069.7,4201.1,2069.7,4202.1,2069.7,4179.1z
		 M1983.7,4169.1c0-5-9-10-20-10s-20,5-20,10c0,6,9,10,20,10S1983.7,4175.1,1983.7,4169.1z M1983.7,4139.1c0-5-9-10-20-10
		s-20,5-20,10c0,6,9,10,20,10S1983.7,4145.1,1983.7,4139.1z M1983.7,4109.1c0-5-9-10-20-10s-20,5-20,10c0,6,9,10,20,10
		S1983.7,4115.1,1983.7,4109.1z M1983.7,4079.1c0-5-9-10-21-10c-11,0-17,5-14,10c3,6,13,10,21,10S1983.7,4085.1,1983.7,4079.1z
		 M2137.7,4054.1c-4-8-11-15-16-15c-6,0-5,6,2,15c7,8,14,15,16,15S2140.7,4062.1,2137.7,4054.1z M1983.7,4049.1c0-5-9-10-21-10
		c-11,0-17,5-14,10c3,6,13,10,21,10S1983.7,4055.1,1983.7,4049.1z M2133.7,4019.1c0-5-9-10-21-10c-11,0-17,5-14,10c3,6,13,10,21,10
		S2133.7,4025.1,2133.7,4019.1z"/>
	<path d="M2308.7,4332.1c11-3,23-10,27-17c4-6,8-72,8-146s-4-140-8-146c-4-7-16-14-27-17c-11-2,21-5,70-5c63-1,83,2,68,8
		c-21,9-23,16-23,85c0,86,16,99,50,43l20-33v70l-1,70l-20-27c-36-48-49-37-49,42v70h29c29,0,66-36,99-95c9-17,11-9,12,43v62l-137-1
		C2350.7,4337.1,2297.7,4334.1,2308.7,4332.1z M2393.7,4325.1c0-9-40-13-46-5c-3,5,6,9,20,9S2393.7,4327.1,2393.7,4325.1z
		 M2543.7,4319.1c0-5-6-10-14-10s-18,5-21,10c-3,6,3,10,14,10C2534.7,4329.1,2543.7,4325.1,2543.7,4319.1z M2386.7,4292.1
		c-7-2-19-2-25,0c-7,3-2,5,12,5S2392.7,4295.1,2386.7,4292.1z M2543.7,4289.1c0-5-2-10-4-10c-3,0-8,5-11,10c-3,6-1,10,4,10
		C2538.7,4299.1,2543.7,4295.1,2543.7,4289.1z M2393.7,4259.1c0-5-6-10-14-10s-18,5-21,10c-3,6,3,10,14,10
		C2384.7,4269.1,2393.7,4265.1,2393.7,4259.1z M2393.7,4229.1c0-5-9-10-20-10s-20,5-20,10c0,6,9,10,20,10
		S2393.7,4235.1,2393.7,4229.1z M2393.7,4199.1c0-5-9-10-20-10s-20,5-20,10c0,6,9,10,20,10S2393.7,4205.1,2393.7,4199.1z
		 M2479.7,4179.1c0-11-4-20-8-20s-8,9-8,20s4,20,8,20S2479.7,4190.1,2479.7,4179.1z M2393.7,4169.1c0-5-9-10-20-10s-20,5-20,10
		c0,6,9,10,20,10S2393.7,4175.1,2393.7,4169.1z M2393.7,4139.1c0-5-9-10-20-10s-20,5-20,10c0,6,9,10,20,10
		S2393.7,4145.1,2393.7,4139.1z M2393.7,4109.1c0-5-9-10-20-10s-20,5-20,10c0,6,9,10,20,10S2393.7,4115.1,2393.7,4109.1z
		 M2393.7,4079.1c0-5-9-10-21-10c-11,0-17,5-14,10c3,6,13,10,21,10S2393.7,4085.1,2393.7,4079.1z M2393.7,4049.1c0-5-9-10-21-10
		c-11,0-17,5-14,10c3,6,13,10,21,10S2393.7,4055.1,2393.7,4049.1z M2403.7,4013.1c0-2-14-4-31-4c-16,0-28,4-25,9
		C2352.7,4026.1,2403.7,4021.1,2403.7,4013.1z"/>
	<path d="M2611.7,4329.1c21-9,22-13,22-161c0-142-1-151-20-156c-44-11-16-18,62-14c60,2,77,6,61,12c-21,8-23,15-23,79
		c0,38,4,70,8,70s14-17,21-37c7-21,20-57,28-80l16-43h56c52,0,54,1,34,15c-12,8-31,43-42,77l-21,62l26,27c30,32,35,95,10,134
		c-16,24-19,25-139,24C2627.7,4338.1,2595.7,4335.1,2611.7,4329.1z M2689.7,4309.1c0-14-7-20-24-20c-13,0-20,4-17,10c4,6,11,8,16,5
		c5-4,9-2,9,4c0,5-8,12-17,14c-12,3-10,5,7,6C2682.7,4329.1,2689.7,4324.1,2689.7,4309.1z M2767.7,4307.1c23-32,20-94-5-119
		c-33-33-44-19-47,64c-3,71-1,77,17,77C2743.7,4329.1,2759.7,4319.1,2767.7,4307.1z M2803.7,4319.1c0-5-4-10-9-10c-6,0-13,5-16,10
		c-3,6,1,10,9,10C2796.7,4329.1,2803.7,4325.1,2803.7,4319.1z M2828.7,4299.1c3-6-4-10-17-10c-18,0-20,2-8,10
		C2822.7,4311.1,2821.7,4311.1,2828.7,4299.1z M2688.7,4259.1c-3-5-12-10-20-10s-17,5-20,10c-4,6,5,10,20,10
		S2692.7,4265.1,2688.7,4259.1z M2838.7,4259.1c-3-5-12-10-20-10s-17,5-20,10c-4,6,5,10,20,10S2842.7,4265.1,2838.7,4259.1z
		 M2683.7,4229.1c0-5-6-10-14-10s-18,5-21,10c-3,6,3,10,14,10C2674.7,4239.1,2683.7,4235.1,2683.7,4229.1z M2838.7,4229.1
		c-3-5-15-10-26-10c-10,0-19,5-19,10c0,6,12,10,26,10S2842.7,4235.1,2838.7,4229.1z M2688.7,4199.1c-3-5-13-10-21-10s-14,5-14,10
		c0,6,9,10,21,10C2685.7,4209.1,2691.7,4205.1,2688.7,4199.1z M2828.7,4199.1c-3-5-15-10-26-10s-17,5-14,10c3,6,15,10,26,10
		S2831.7,4205.1,2828.7,4199.1z M2683.7,4169.1c0-5-9-10-21-10c-11,0-17,5-14,10c3,6,13,10,21,10S2683.7,4175.1,2683.7,4169.1z
		 M2798.7,4169.1c-3-5-13-10-21-10s-12,5-9,10c3,6,13,10,21,10S2801.7,4175.1,2798.7,4169.1z M2688.7,4139.1c4-6-5-10-20-10
		s-24,4-20,10c3,6,12,10,20,10S2685.7,4145.1,2688.7,4139.1z M2788.7,4139.1c3-5-3-10-14-10s-23,5-26,10c-3,6,3,10,14,10
		S2785.7,4145.1,2788.7,4139.1z M2683.7,4109.1c0-5-9-10-21-10c-11,0-17,5-14,10c3,6,13,10,21,10S2683.7,4115.1,2683.7,4109.1z
		 M2798.7,4109.1c3-5-3-10-14-10c-12,0-21,5-21,10c0,6,6,10,14,10S2795.7,4115.1,2798.7,4109.1z M2688.7,4079.1c3-5-3-10-14-10
		c-12,0-21,5-21,10c0,6,6,10,14,10S2685.7,4085.1,2688.7,4079.1z M2808.7,4079.1c3-5-3-10-14-10c-12,0-21,5-21,10c0,6,6,10,14,10
		S2805.7,4085.1,2808.7,4079.1z M2688.7,4049.1c4-6-5-10-20-10s-24,4-20,10c3,6,12,10,20,10S2685.7,4055.1,2688.7,4049.1z
		 M2819.7,4046.1c4-4-2-7-14-7s-22,4-22,9C2783.7,4058.1,2809.7,4057.1,2819.7,4046.1z M2828.7,4019.1c3-6-4-10-17-10
		c-18,0-20,2-8,10C2822.7,4031.1,2821.7,4031.1,2828.7,4019.1z M2686.7,4012.1c-7-2-21-2-30,0c-10,3-4,5,12,5
		C2685.7,4017.1,2692.7,4015.1,2686.7,4012.1z"/>
	<path d="M2930.7,4332.1c31-6,34-26,31-178c-3-127-4-130-28-142c-21-11-5-13,113-13h137v62c0,56-1,60-14,42c-8-10-12-29-9-41
		c3-13,1-23-6-23c-6,0-8,8-4,18s-7,5-28-15c-19-18-45-33-57-33c-18,0-22,6-23,33c-2,55,3,122,8,127c2,3,18-10,34-28l29-32v72
		c-1,67-2,71-14,49c-8-14-12-32-9-40c3-10,1-12-4-6c-4,6-17,10-28,10c-14,0-20,6-19,23c3,111,3,112,25,112c34,0,57-18,85-65
		c14-25,28-45,30-45s4,27,4,60v60l-137-1C2970.7,4337.1,2918.7,4334.1,2930.7,4332.1z M3013.7,4325.1c0-9-40-13-46-5c-3,5,6,9,20,9
		S3013.7,4327.1,3013.7,4325.1z M3163.7,4319.1c0-5-9-10-19-10c-11,0-23,5-26,10c-4,6,5,10,19,10S3163.7,4325.1,3163.7,4319.1z
		 M3008.7,4299.1c3-6-4-10-17-10c-18,0-20,2-8,10C3002.7,4311.1,3001.7,4311.1,3008.7,4299.1z M3163.7,4289.1c0-5-4-10-10-10
		c-5,0-10,5-10,10c0,6,5,10,10,10C3159.7,4299.1,3163.7,4295.1,3163.7,4289.1z M3013.7,4259.1c0-5-9-10-20-10s-20,5-20,10
		c0,6,9,10,20,10S3013.7,4265.1,3013.7,4259.1z M3013.7,4229.1c0-5-9-10-20-10s-20,5-20,10c0,6,9,10,20,10
		S3013.7,4235.1,3013.7,4229.1z M3013.7,4199.1c0-5-9-10-20-10s-20,5-20,10c0,6,9,10,20,10S3013.7,4205.1,3013.7,4199.1z
		 M3013.7,4169.1c0-5-9-10-20-10s-20,5-20,10c0,6,9,10,20,10S3013.7,4175.1,3013.7,4169.1z M3013.7,4139.1c0-5-9-10-20-10
		s-20,5-20,10c0,6,9,10,20,10S3013.7,4145.1,3013.7,4139.1z M3013.7,4109.1c0-5-9-10-20-10s-20,5-20,10c0,6,9,10,20,10
		S3013.7,4115.1,3013.7,4109.1z M3013.7,4079.1c0-5-9-10-20-10s-20,5-20,10c0,6,9,10,20,10S3013.7,4085.1,3013.7,4079.1z
		 M3008.7,4049.1c3-5-3-10-14-10c-12,0-21,5-21,10c0,6,6,10,14,10S3005.7,4055.1,3008.7,4049.1z M3163.7,4019.1c0-5-12-10-26-10
		s-23,4-19,10c3,6,15,10,26,10C3154.7,4029.1,3163.7,4025.1,3163.7,4019.1z M3006.7,4012.1c-7-2-21-2-30,0c-10,3-4,5,12,5
		C3005.7,4017.1,3012.7,4015.1,3006.7,4012.1z"/>
	<path d="M3571.7,4329.1c21-9,22-13,22-160s-1-151-22-160c-16-6,22-9,115-9l137-1v63l-1,62l-22-30c-41-56-75-85-101-85s-26,1-26,80
		c0,92,11,102,54,48l26-33v68c0,37-4,67-9,67c-10,0-23-29-17-38c2-4-9-8-25-9l-29-2v69v70h29c30,0,72-39,94-87c17-39,27-26,27,37v60
		l-137-1C3593.7,4338.1,3555.7,4335.1,3571.7,4329.1z M3649.7,4309.1c0-14-7-20-24-20c-13,0-20,4-17,10c4,6,11,8,16,5c5-4,9-2,9,4
		c0,5-8,12-17,14c-12,3-10,5,7,6C3642.7,4329.1,3649.7,4324.1,3649.7,4309.1z M3793.7,4319.1c0-5-6-10-14-10s-18,5-21,10
		c-3,6,3,10,14,10C3784.7,4329.1,3793.7,4325.1,3793.7,4319.1z M3648.7,4259.1c-3-5-12-10-20-10s-17,5-20,10c-4,6,5,10,20,10
		S3652.7,4265.1,3648.7,4259.1z M3648.7,4229.1c-3-5-12-10-20-10s-17,5-20,10c-4,6,5,10,20,10S3652.7,4235.1,3648.7,4229.1z
		 M3648.7,4199.1c-3-5-12-10-20-10s-17,5-20,10c-4,6,5,10,20,10S3652.7,4205.1,3648.7,4199.1z M3653.7,4169.1c0-5-9-10-19-10
		c-11,0-23,5-26,10c-4,6,5,10,19,10S3653.7,4175.1,3653.7,4169.1z M3728.7,4169.1c3-5,1-10-4-10c-6,0-11,5-11,10c0,6,2,10,4,10
		C3720.7,4179.1,3725.7,4175.1,3728.7,4169.1z M3653.7,4139.1c0-5-12-10-26-10s-23,4-19,10c3,6,15,10,26,10
		C3644.7,4149.1,3653.7,4145.1,3653.7,4139.1z M3648.7,4109.1c4-6-5-10-20-10s-24,4-20,10c3,6,12,10,20,10
		S3645.7,4115.1,3648.7,4109.1z M3648.7,4079.1c4-6-5-10-20-10s-24,4-20,10c3,6,12,10,20,10S3645.7,4085.1,3648.7,4079.1z
		 M3799.7,4042.1c-10-10-19,5-10,18c6,11,8,11,12,0C3803.7,4053.1,3802.7,4045.1,3799.7,4042.1z M3648.7,4049.1c4-6-5-10-20-10
		s-24,4-20,10c3,6,12,10,20,10S3645.7,4055.1,3648.7,4049.1z M3798.7,4019.1c4-6-5-10-20-10s-24,4-20,10c3,6,12,10,20,10
		S3795.7,4025.1,3798.7,4019.1z M3646.7,4012.1c-7-2-21-2-30,0c-10,3-4,5,12,5C3645.7,4017.1,3652.7,4015.1,3646.7,4012.1z"/>
	<path d="M1599.7,3904.1c-3-8-1-15,3-15c5,0,11,7,15,15c3,8,1,15-3,15C1609.7,3919.1,1603.7,3912.1,1599.7,3904.1z"/>
	<path d="M1213.7,3869.1c0-5,11-10,25-10c24,0,25-2,25-65c0-37,4-65,10-65s10,28,10,65v65h30c17,0,30,5,30,10c0,6-28,10-65,10
		S1213.7,3875.1,1213.7,3869.1z"/>
	<path d="M1373.7,3804.1c0-43,4-75,10-75s10,16,10,36v35l43-3c40-3,42-4,42-35c0-18,4-33,10-33s10,31,10,75s-4,75-10,75
		s-10-15-10-32c0-32-2-33-42-36l-43-3v35c0,20-4,36-10,36S1373.7,3847.1,1373.7,3804.1z"/>
	<path d="M1543.7,3804.1v-75h60c33,0,60,4,60,8c0,5-21,8-47,8c-45-1-48,1-51,26c-3,24,0,27,35,31l38,4l-37,1c-33,2-38,5-38,27
		c0,23,3,25,50,25c28,0,50,5,50,10c0,6-27,10-60,10h-60V3804.1z"/>
	<path d="M1761.7,3804.1c-2-46,1-75,7-75s10,15,10,33c0,30,2,32,33,32c17,0,32,4,32,10s-15,10-32,10c-27,0-34,4-36,23
		c-3,20,0,22,47,22c28,0,51,5,51,10c0,6-24,10-54,10h-54L1761.7,3804.1z"/>
	<path d="M1913.7,3804.1c0-43,4-75,10-75s10,14,10,30c0,25,4,30,24,30c17,0,31-10,43-30c9-16,21-30,25-30c12,0,10,8-9,36
		c-16,25-16,27,0,36c20,10,22,49,5,66c-7,7-34,12-60,12h-48V3804.1z M2017.7,3850.1c14-22-7-41-45-41c-35,0-39,3-39,25s4,25,39,25
		C1994.7,3859.1,2014.7,3855.1,2017.7,3850.1z"/>
	<path d="M2098.7,3817.1c-39-89-38-88-27-88c6,0,14,9,17,20c5,16,15,20,46,20c32,0,39-3,39-20c0-11,6-20,14-20c11,0,8,17-16,75
		c-17,41-34,75-38,75S2113.7,3851.1,2098.7,3817.1z M2153.7,3802.1c0-7-11-13-24-13c-23,0-24,2-13,30s13,29,24,13
		C2147.7,3823.1,2153.7,3809.1,2153.7,3802.1z"/>
	<path d="M2233.7,3804.1c0-43,4-75,10-75s10,27,10,61v62l48-61c26-34,50-61,55-62c4,0,7,34,7,75s-4,75-9,75s-9-25-8-55s0-55-3-55
		s-23,25-45,55C2243.7,3899.1,2233.7,3896.1,2233.7,3804.1z"/>
	<path d="M2428.7,3854.1c-49-48-16-125,53-125c20,0,45,7,54,14c27,20,10,26-23,8c-26-15-31-16-56-2c-34,19-43,69-18,94
		c19,19,76,21,93,4c9-9,12-8,12,4C2543.7,3885.1,2461.7,3888.1,2428.7,3854.1z"/>
	<path d="M2606.7,3804.1c-23-56-28-75-17-75c8,0,14,9,14,20c0,17,7,20,39,20c31,0,41-4,46-20c3-11,11-20,16-20c13,0,12,2-16,66
		c-14,31-25,63-25,70C2663.7,3902.1,2635.7,3871.1,2606.7,3804.1z M2651.7,3791.1c-27-5-30,1-17,34l11,29l12-30
		C2668.7,3797.1,2668.7,3794.1,2651.7,3791.1z"/>
	<path d="M2748.7,3804.1c0-43,4-75,10-75s10,32,10,75s-4,75-10,75S2748.7,3847.1,2748.7,3804.1z"/>
	<path d="M2829.7,3866.1c-11-8-17-23-14-38c2-20,10-25,46-30c55-7,74-25,48-45c-25-18-46-18-74,2c-19,13-22,13-22,1
		c0-30,87-38,114-11c19,18,19,20,6,45c-7,13-21,19-43,19c-18,0-41,6-51,13c-28,21,4,41,54,34c43-5,55,7,18,17
		C2875.7,3882.1,2848.7,3880.1,2829.7,3866.1z"/>
	<path d="M988.7,3819.1c-3-5-156-9-387-10c-210,0-384-3-387-5c-2-3,45-5,105-5s201-7,314-15c205-16,252-14,322,11c33,11,38,11,38-1
		c0-8,7-15,15-15s15,6,15,13c0,6,11,12,25,12s25-3,25-6c0-4,8-10,17-13c10-4,14-4,10,0s-2,13,4,20c7,8,6,14-2,20c-7,4-9,3-6-3
		c4-7-13-10-48-10c-30,0-52,3-49,8s3,9,0,9S992.7,3825.1,988.7,3819.1z"/>
	<path d="M3051.7,3823.1c-3-3-4-13-1-23c4-16,9-17,33-8c21,8,36,8,54-1c21-10,26-9,26,3s5,12,26,5c73-28,117-30,347-15
		c127,8,273,16,322,18c50,2-76,4-280,6c-203,2-376,3-383,2c-8-1-21,4-30,11s-13,8-9,2c5-8-10-11-48-11c-30,0-52,3-49,8
		C3065.7,3830.1,3059.7,3832.1,3051.7,3823.1z"/>
	<path d="M2957.7,3758.1c-3-6-1-16,6-22c10-9,11-9,5,3c-8,13-7,13,8,1s17-11,17,8C2993.7,3770.1,2969.7,3777.1,2957.7,3758.1z"/>
	<path d="M2473.7,3710.1c0-5,5-13,10-16c6-3,10-2,10,4c0,5-4,13-10,16C2478.7,3717.1,2473.7,3716.1,2473.7,3710.1z"/>
</g>
</svg>
