<?xml version="1.0" encoding="utf-8"?>
<!-- Generator: Adobe Illustrator 27.5.0, SVG Export Plug-In . SVG Version: 6.00 Build 0)  -->
<svg version="1.1" xmlns="http://www.w3.org/2000/svg" xmlns:xlink="http://www.w3.org/1999/xlink" x="0px" y="0px"
	 viewBox="0 0 4891.6 4855.7" style="enable-background:new 0 0 4891.6 4855.7;" xml:space="preserve">
<style type="text/css">
	.st0{opacity:0.996;fill-rule:evenodd;clip-rule:evenodd;fill:#AD8178;enable-background:new    ;}
	.st1{opacity:0.997;fill-rule:evenodd;clip-rule:evenodd;fill:#AD8178;enable-background:new    ;}
	.st2{opacity:0.998;fill-rule:evenodd;clip-rule:evenodd;fill:#AD8178;enable-background:new    ;}
</style>
<g id="BL">
	<g>
		<path class="st0" d="M274.3,3437.1c48.2-30.8,94.2-27.7,137.8,9.2c27.7,26.2,47.2,57.4,58.5,93.8c20.1,69.1,14.8,136.1-15.9,200.8
			c-12.2,24-28.9,44.2-50.1,60.7c-49.6,33.1-97.2,30.4-142.6-8.1c-22.8-21.7-39.7-47.3-50.9-76.7c-20.6-57.8-22.8-116-6.7-174.7
			c9.9-34.6,27.6-64.9,53.1-90.7C262.9,3446.3,268.6,3441.5,274.3,3437.1z"/>
	</g>
	<g>
		<path class="st1" d="M753.8,3296c29.4-21.4,62.1-33.6,98.2-36.7c52.9-0.4,93.5,22.1,121.8,67.5c17.7,29.4,28.6,61.2,32.5,95.4
			c5.3,50.5,0.5,100.1-14.3,148.9c-14.3,48.3-37.4,92.2-69.5,131.7c-24.4,29.6-53.8,52.9-88.2,69.9c-37.6,18.4-76.2,21.6-115.8,9.4
			c-36.2-14.2-62.8-38.9-79.8-74.1c-15.9-33.7-24.3-69.2-25-106.4c-1.2-92.6,26.2-175.8,82.1-249.7
			C712.8,3330.6,732.1,3312,753.8,3296z"/>
	</g>
	<g>
		<path class="st2" d="M196.2,4024.6c129.7-86.6,272.4-129.4,427.9-128.5c32.3,0.6,64.3,3.9,96.2,9.7
			c54.6,11.7,104.1,34.5,148.7,68.5c42,33.2,73,74.8,92.9,124.6c14.9,38.9,24.4,79.1,28.5,120.6c5,50.3,5.4,100.4,1.2,150.5
			c-15.7,123.6-53,240-111.7,349.1c-17.6,31.6-38.5,60.8-62.9,87.6c-17.8,19.4-38.8,34-63.1,43.8c-20.7,7.1-41.3,6.9-61.8-0.5
			c-39-14.2-73-36.3-102.2-66.2c-23.7-24.5-45.1-50.9-64.2-79.2c-18.4-27.3-36.5-54.7-54.4-82.3c-17.7-27.8-37.5-53.8-59.6-78.2
			c-15.9-16.2-34.1-28.9-54.7-38.2c-14-6.4-28.2-12-42.8-16.8c-18.4-5.6-36.9-10.9-55.5-15.8c-46-10.2-91.5-21.9-136.5-35.1
			c-25-7.7-48.6-18.6-70.8-32.7c-34-24-51.1-56.8-51.3-98.4c0.9-23.8,5.4-46.9,13.7-69.4c19.6-47.3,47.2-89.5,82.8-126.8
			C126.9,4078.7,160.2,4049.9,196.2,4024.6z"/>
	</g>
	<g>
		<path class="st1" d="M1143.5,3632.3c34.6-23.8,72.4-40.5,113.2-50.1c35.8-8.2,71.2-7,106.2,3.7c47.1,17.9,76.6,51.4,88.7,100.6
			c5.6,26.4,6,52.7,1.4,79c-10.7,53.5-33,101.7-67.1,144.7c-47.7,60.5-108.4,102-182.1,124.6c-39.3,11.7-78.7,12.7-118.3,3.1
			c-57.1-18.3-90.1-57.2-98.9-116.8c-3.4-34.6,0.7-68.4,12.3-101.4C1027.7,3742.5,1075.9,3680,1143.5,3632.3z"/>
	</g>
	<g>
		<path class="st0" d="M1181.2,4193.6c54-35.6,113.1-52,177.3-49.1c30.8,2.1,59.3,11.4,85.4,27.9c46.1,34.8,59.9,79.5,41.3,134.1
			c-15.8,37.7-40.4,68.5-74,92.3c-52.6,37.7-111,55.8-175.4,54.6c-34.1-1.1-65.5-10.9-94.2-29.4c-44.7-34.3-58.5-78.2-41.4-131.7
			c13.1-33.1,33.6-61,61.5-83.6C1168.2,4203.4,1174.7,4198.4,1181.2,4193.6z"/>
	</g>
</g>
<g id="BR">
	<g>
		<path class="st0" d="M3287.7,3239.5c33.2-55.5,79.4-95.8,138.6-121.1c28.7-11.4,58.4-15.4,89-11.9c56.6,11.4,88.4,45.7,95.3,102.9
			c2.1,40.8-6.8,79.2-26.8,115.2c-31.1,56.7-75.9,98.4-134.5,125.2c-31.2,13.8-63.8,18.6-97.6,14.3c-55.2-11.6-86.6-45.1-94.3-100.8
			c-2.5-35.6,3.9-69.5,19.2-102C3280.2,3254,3283.9,3246.6,3287.7,3239.5z"/>
	</g>
	<g>
		<path class="st1" d="M3010.5,2749.9c20.9-36.5,47.7-67.9,80.4-94.2c28.7-22.9,61.2-37.1,97.3-42.6c50.2-4.3,91.3,13.1,123.5,52.2
			c16.4,21.3,28.3,44.9,35.5,70.6c13.6,52.9,14.3,106,2.2,159.5c-16.8,75.2-53.6,138.9-110.1,191.1c-30.4,27.5-65.5,45.6-105.2,54
			c-59.4,8.3-106-12.5-139.8-62.4c-18.1-29.7-29-62-32.9-96.7C2953.9,2899.5,2970.2,2822.2,3010.5,2749.9z"/>
	</g>
	<g>
		<path class="st2" d="M2326.7,3513.9c79.4-134.2,189.4-234.6,330-301.2c29.4-13.4,59.7-24.4,90.9-33c54.2-13.1,108.8-14,163.7-2.7
			c52.3,11.8,98.2,35.8,137.7,72c30.3,28.6,56.3,60.7,77.9,96.4c26.3,43.2,48.3,88.2,66.2,135.1c39.4,118.2,56.2,239.2,50.6,363.1
			c-2.1,36.1-8.4,71.5-18.8,106.2c-7.6,25.2-20.3,47.4-37.9,66.9c-15.6,15.3-34.2,24.1-55.9,26.3c-41.3,4.1-81.5-1-120.8-15.4
			c-32-11.8-62.7-26.4-92.2-43.6c-28.4-16.6-56.6-33.5-84.7-50.6c-27.9-17.4-57.2-32.3-87.6-44.6c-21.3-7.7-43.3-11.3-65.9-10.8
			c-15.3,0.3-30.6,1.4-45.8,3.4c-19,2.9-37.9,6.2-56.8,9.7c-45.9,10.7-92,19.9-138.3,27.6c-25.9,3.9-51.9,4.3-78,1.2
			c-41-6.9-70.6-29.1-88.8-66.5c-9.5-21.8-15.4-44.7-17.7-68.5c-2.9-51.1,3.7-101.1,19.7-150.1
			C2287.7,3592.7,2305.2,3552.3,2326.7,3513.9z"/>
	</g>
	<g>
		<path class="st1" d="M2513.6,2615.7c17.2-32,41.4-57.2,72.6-75.6c47.5-23.3,93.9-20.6,139,8.1c28.7,18.9,52.3,42.8,70.6,71.9
			c26.7,43.2,43.9,90,51.6,140.4c8.1,49.7,6.2,99.3-5.6,148.8c-9.2,37.2-25.6,71-49.2,101.2c-25.9,32.9-59.3,52.4-100.3,58.7
			c-38.8,2.9-73.4-7.8-104-32.2c-29-23.5-51.8-51.8-68.6-85.1c-41.2-82.9-52.6-169.8-34.2-260.7
			C2491.6,2664.6,2501,2639.5,2513.6,2615.7z"/>
	</g>
	<g>
		<path class="st0" d="M2142.5,2950.5c30.1-48.7,72.9-65.8,128.2-51.4c36.3,11.6,67.4,31.3,93.4,59.2c48,53.6,72.3,116.2,72.6,187.9
			c-0.6,26.9-6.9,52.3-18.9,76.4c-30.4,51.3-74.4,69.5-132,54.5c-29.9-9.7-56.3-25.4-79.1-47.1c-43.5-43.1-70.8-94.7-81.8-154.6
			c-6-35.5-3.2-70.4,8.5-104.8C2136.3,2963.7,2139.3,2957,2142.5,2950.5z"/>
	</g>
</g>
<g id="FL">
	<g>
		<path class="st0" d="M2557.2,1465.2c33.2-55.5,79.4-95.8,138.6-121.1c28.7-11.4,58.4-15.4,89-11.9c56.6,11.4,88.4,45.7,95.3,102.9
			c2.1,40.8-6.8,79.2-26.8,115.2c-31.1,56.7-75.9,98.4-134.5,125.2c-31.2,13.8-63.8,18.6-97.6,14.3c-55.2-11.6-86.6-45.1-94.3-100.8
			c-2.5-35.6,3.9-69.5,19.2-102C2549.8,1479.7,2553.5,1472.4,2557.2,1465.2z"/>
	</g>
	<g>
		<path class="st1" d="M2280.1,975.7c20.9-36.5,47.7-67.9,80.4-94.2c28.7-22.9,61.2-37.1,97.3-42.6c50.2-4.3,91.3,13.1,123.5,52.2
			c16.4,21.3,28.3,44.9,35.5,70.6c13.6,52.9,14.3,106,2.2,159.5c-16.8,75.2-53.6,138.9-110.1,191.1c-30.4,27.5-65.5,45.6-105.2,54
			c-59.4,8.3-106-12.5-139.8-62.4c-18.1-29.7-29-62-32.9-96.7C2223.4,1125.2,2239.8,1048,2280.1,975.7z"/>
	</g>
	<g>
		<path class="st2" d="M1596.3,1739.6c79.4-134.2,189.4-234.6,330-301.2c29.4-13.4,59.7-24.4,90.9-33c54.2-13.1,108.8-14,163.7-2.7
			c52.3,11.8,98.2,35.8,137.7,72c30.3,28.6,56.3,60.7,77.9,96.4c26.3,43.2,48.3,88.2,66.2,135.1c39.4,118.2,56.2,239.2,50.6,363.1
			c-2.1,36.1-8.4,71.5-18.8,106.2c-7.6,25.2-20.3,47.4-37.9,66.9c-15.6,15.3-34.2,24.1-55.9,26.3c-41.3,4.1-81.5-1-120.8-15.4
			c-32-11.8-62.7-26.4-92.2-43.6c-28.4-16.6-56.6-33.5-84.7-50.6c-27.9-17.4-57.2-32.3-87.6-44.6c-21.3-7.7-43.3-11.3-65.9-10.8
			c-15.3,0.3-30.6,1.4-45.8,3.4c-19,2.9-37.9,6.2-56.8,9.7c-45.9,10.7-92,19.9-138.3,27.6c-25.9,3.9-51.9,4.3-78,1.2
			c-41-6.9-70.6-29.1-88.8-66.5c-9.5-21.8-15.4-44.7-17.7-68.5c-2.8-51.1,3.7-101.1,19.7-150.1
			C1557.2,1818.4,1574.7,1778.1,1596.3,1739.6z"/>
	</g>
	<g>
		<path class="st1" d="M1783.1,841.4c17.2-32,41.4-57.2,72.6-75.6c47.5-23.3,93.9-20.6,139,8.1c28.7,18.9,52.3,42.8,70.6,71.9
			c26.7,43.2,43.9,90,51.6,140.4c8.1,49.7,6.2,99.3-5.6,148.8c-9.2,37.2-25.6,71-49.2,101.2c-25.9,32.9-59.3,52.4-100.3,58.7
			c-38.8,2.9-73.4-7.8-104-32.2c-29-23.5-51.8-51.8-68.6-85.1c-41.2-82.9-52.6-169.8-34.2-260.7
			C1761.2,890.4,1770.5,865.2,1783.1,841.4z"/>
	</g>
	<g>
		<path class="st0" d="M1412.1,1176.3c30.1-48.7,72.9-65.8,128.2-51.4c36.3,11.6,67.4,31.3,93.4,59.2c48,53.6,72.3,116.2,72.6,187.9
			c-0.6,26.9-6.9,52.3-18.9,76.4c-30.4,51.3-74.4,69.5-132,54.5c-29.9-9.7-56.3-25.4-79.1-47.1c-43.5-43.1-70.8-94.7-81.8-154.6
			c-6-35.5-3.2-70.4,8.5-104.8C1405.9,1189.5,1408.9,1182.8,1412.1,1176.3z"/>
	</g>
</g>
<g id="FR">
	<g>
		<path class="st0" d="M4568.4,715.1c33.2-55.5,79.4-95.8,138.6-121.1c28.7-11.4,58.4-15.4,89-11.9c56.6,11.4,88.4,45.7,95.3,102.9
			c2.1,40.8-6.8,79.2-26.8,115.2c-31.1,56.7-75.9,98.4-134.5,125.2c-31.2,13.8-63.8,18.6-97.6,14.3c-55.2-11.6-86.6-45.1-94.3-100.8
			c-2.5-35.6,3.9-69.5,19.2-102C4561,729.6,4564.7,722.2,4568.4,715.1z"/>
	</g>
	<g>
		<path class="st1" d="M4291.3,225.5c20.9-36.5,47.7-67.9,80.4-94.2c28.7-22.9,61.2-37.1,97.3-42.6c50.2-4.3,91.3,13.1,123.5,52.2
			c16.4,21.3,28.3,44.9,35.5,70.6c13.6,52.9,14.3,106,2.2,159.5c-16.8,75.2-53.6,138.9-110.1,191.1c-30.4,27.5-65.5,45.6-105.2,54
			c-59.4,8.3-106-12.5-139.8-62.4c-18.1-29.7-29-62-32.9-96.7C4234.6,375,4251,297.8,4291.3,225.5z"/>
	</g>
	<g>
		<path class="st2" d="M3607.5,989.5c79.4-134.2,189.4-234.6,330-301.2c29.4-13.4,59.7-24.4,90.9-33c54.2-13.1,108.8-14,163.7-2.7
			c52.3,11.8,98.2,35.8,137.7,72c30.3,28.6,56.3,60.7,77.9,96.4c26.3,43.2,48.3,88.2,66.2,135.1c39.4,118.2,56.2,239.2,50.6,363.1
			c-2.1,36.1-8.4,71.5-18.8,106.2c-7.6,25.2-20.3,47.4-37.9,66.9c-15.6,15.3-34.2,24.1-55.9,26.3c-41.3,4.1-81.5-1-120.8-15.4
			c-32-11.8-62.7-26.4-92.2-43.6c-28.4-16.6-56.6-33.5-84.7-50.6c-27.9-17.4-57.2-32.3-87.6-44.6c-21.3-7.7-43.3-11.3-65.9-10.7
			c-15.3,0.3-30.6,1.4-45.8,3.4c-19,2.9-37.9,6.2-56.8,9.7c-45.9,10.7-92,19.9-138.3,27.6c-25.9,3.9-51.9,4.3-78,1.2
			c-41-6.9-70.6-29.1-88.8-66.5c-9.5-21.8-15.4-44.7-17.7-68.5c-2.8-51.1,3.7-101.1,19.7-150.1
			C3568.4,1068.3,3586,1027.9,3607.5,989.5z"/>
	</g>
	<g>
		<path class="st1" d="M3794.3,91.3c17.2-32,41.4-57.2,72.6-75.6c47.5-23.3,93.9-20.6,139,8.1c28.7,18.9,52.3,42.8,70.6,71.9
			c26.7,43.2,43.9,90,51.6,140.4c8,49.7,6.2,99.3-5.6,148.8c-9.2,37.2-25.6,71-49.2,101.2c-25.9,32.9-59.3,52.4-100.3,58.7
			c-38.8,2.9-73.4-7.8-104-32.2c-29-23.5-51.8-51.8-68.6-85.1c-41.2-82.9-52.6-169.8-34.2-260.7
			C3772.4,140.2,3781.7,115.1,3794.3,91.3z"/>
	</g>
	<g>
		<path class="st0" d="M3423.3,426.1c30.1-48.7,72.9-65.8,128.2-51.4c36.3,11.6,67.4,31.3,93.4,59.2c48,53.6,72.3,116.2,72.6,187.9
			c-0.6,26.9-6.9,52.3-18.9,76.4c-30.4,51.3-74.4,69.5-132,54.5c-29.9-9.7-56.3-25.4-79.1-47.1c-43.5-43.1-70.8-94.7-81.8-154.6
			c-6-35.5-3.2-70.4,8.5-104.8C3417.1,439.3,3420.1,432.6,3423.3,426.1z"/>
	</g>
</g>
</svg>
