<?xml version="1.0" encoding="UTF-8"?>
<!DOCTYPE svg PUBLIC "-//W3C//DTD SVG 1.1//EN" "http://www.w3.org/Graphics/SVG/1.1/DTD/svg11.dtd">
<svg fill="#7F9A8A" xmlns="http://www.w3.org/2000/svg" version="1.1" width="2480px" height="2480px" style="shape-rendering:geometricPrecision; text-rendering:geometricPrecision; image-rendering:optimizeQuality; fill-rule:evenodd; clip-rule:evenodd" xmlns:xlink="http://www.w3.org/1999/xlink">
<g><path d="M 1123.5,141.5 C 1209.96,141.137 1266.12,182.137 1292,264.5C 1306.19,320.213 1305.86,375.879 1291,431.5C 1260.83,535.96 1199.99,617.126 1108.5,675C 1073.6,695.745 1035.93,708.078 995.5,712C 905.412,714.216 846.912,672.382 820,586.5C 808.457,540.427 807.457,494.093 817,447.5C 837.389,357.181 881.555,281.015 949.5,219C 990.126,182.85 1037.13,158.517 1090.5,146C 1101.59,144.073 1112.59,142.573 1123.5,141.5 Z"/></g>
<g><path d="M 1849.5,348.5 C 1904.26,344.952 1955.93,355.785 2004.5,381C 2072.38,423.231 2106.05,484.731 2105.5,565.5C 2104.36,617.402 2092.52,666.735 2070,713.5C 2036,782.286 1989.83,841.786 1931.5,892C 1874.24,942.144 1809.24,979.477 1736.5,1004C 1681.44,1022.07 1625.1,1028.07 1567.5,1022C 1504.63,1015.16 1452.8,987.991 1412,940.5C 1377.25,893.18 1363.25,840.18 1370,781.5C 1376.85,725.606 1394.85,673.606 1424,625.5C 1497.21,506.305 1599.37,422.138 1730.5,373C 1769.24,359.619 1808.91,351.452 1849.5,348.5 Z"/></g>
<g><path d="M 549.5,828.5 C 785.006,822.701 1001.67,883.201 1199.5,1010C 1240.19,1036.86 1278.52,1066.86 1314.5,1100C 1374.75,1158.95 1419.58,1228.12 1449,1307.5C 1475.8,1383.87 1481.8,1461.87 1467,1541.5C 1454.63,1603.27 1434.3,1662.27 1406,1718.5C 1371.76,1786.69 1331.76,1851.03 1286,1911.5C 1166.11,2056.57 1024.61,2175.07 861.5,2267C 813.522,2293.21 763.189,2313.55 710.5,2328C 672.171,2338.37 633.504,2340.03 594.5,2333C 562.379,2325.36 536.212,2308.53 516,2282.5C 477.726,2232.93 452.059,2177.27 439,2115.5C 428.54,2065.03 422.54,2014.03 421,1962.5C 419.522,1912.84 418.522,1863.18 418,1813.5C 417.894,1763.78 413.56,1714.45 405,1665.5C 397.761,1632.03 384.761,1601.03 366,1572.5C 353.311,1553.12 339.644,1534.46 325,1516.5C 306.038,1494.54 286.704,1472.87 267,1451.5C 216.503,1401.34 167.836,1349.68 121,1296.5C 95.3023,1266.44 73.969,1233.44 57,1197.5C 32.9751,1139.44 37.6418,1083.77 71,1030.5C 91.337,1000.83 115.837,974.993 144.5,953C 207.669,908.425 277.002,876.758 352.5,858C 417.327,841.573 482.994,831.74 549.5,828.5 Z"/></g>
<g><path d="M 2075.5,1092.5 C 2138.92,1090.06 2200.59,1099.23 2260.5,1120C 2312.88,1138.43 2357.05,1168.59 2393,1210.5C 2438.65,1271.34 2449.31,1338.01 2425,1410.5C 2410.81,1448.63 2390.15,1482.63 2363,1512.5C 2306.17,1572.19 2238.67,1615.69 2160.5,1643C 2050.72,1681.64 1939.72,1685.64 1827.5,1655C 1767.91,1638.14 1716.74,1607.64 1674,1563.5C 1615.84,1494.05 1605.17,1417.72 1642,1334.5C 1665.6,1287.55 1698.1,1247.72 1739.5,1215C 1838.63,1139.67 1950.63,1098.84 2075.5,1092.5 Z"/></g>
<g><path d="M 1670.5,1839.5 C 1768.15,1837.57 1856.82,1864.4 1936.5,1920C 1974.15,1947.64 2002.98,1982.47 2023,2024.5C 2053.71,2106.18 2035.21,2174.35 1967.5,2229C 1916.91,2264.42 1860.58,2283.75 1798.5,2287C 1700.99,2292.63 1611.66,2268.63 1530.5,2215C 1487.84,2186.01 1455.67,2148.18 1434,2101.5C 1404.6,2021.57 1422.44,1954.4 1487.5,1900C 1531,1868.27 1579.66,1849.27 1633.5,1843C 1645.96,1841.55 1658.3,1840.39 1670.5,1839.5 Z"/></g>
</svg>
