<?xml version="1.0" encoding="utf-8"?>
<!-- Generator: Adobe Illustrator 27.6.1, SVG Export Plug-In . SVG Version: 6.00 Build 0)  -->
<svg version="1.1" xmlns="http://www.w3.org/2000/svg" xmlns:xlink="http://www.w3.org/1999/xlink" x="0px" y="0px"
	 viewBox="0 0 584.7 584.7" style="enable-background:new 0 0 584.7 584.7;" xml:space="preserve">
<style type="text/css">
	.st0{fill:#D0C9C1;}
	.st1{fill:#1D1D1B;}
	.st2{clip-path:url(#SVGID_00000057148534536203381890000005741633832806617524_);}
</style>
<g id="background">
	<path class="st0" d="M479.2,578.8H103.6c-54.8,0-99.2-44.4-99.2-99.2V104c0-54.8,44.4-99.2,99.2-99.2h375.6
		c54.8,0,99.2,44.4,99.2,99.2v375.6C578.4,534.3,533.9,578.8,479.2,578.8z"/>
</g>
<g id="logo">
	<polygon class="st1" points="132.6,284.7 138.7,284.7 138.7,342.3 162.2,342.3 162.2,347.6 132.6,347.6 	"/>
	<path class="st1" d="M189,325.4c-7.4,0.9-12.1,2.2-14.1,3.8c-2,1.6-2.9,3.7-2.9,6.3c0,2.3,0.7,4.2,2.2,5.7c1.4,1.5,3.3,2.2,5.4,2.2
		c2.7,0,5-1.1,6.8-3.4c1.8-2.3,2.7-5.2,2.7-8.8L189,325.4L189,325.4z M169.4,307.5c4.6-2.6,8.5-3.9,11.6-3.9c4.5,0,7.9,1.3,10.2,3.9
		c2.3,2.6,3.5,6.2,3.5,10.7V341c0,1.7,0.8,2.5,2.4,2.5c0.8,0,1.6-0.2,2.4-0.7v4.8c-1.4,0.7-2.9,1-4.4,1c-3.9,0-6-2.3-6.1-6.9
		c-1.5,2.3-3.1,4-4.9,5.2c-1.8,1.2-3.8,1.7-5.9,1.7c-3.4,0-6.3-1.2-8.6-3.7c-2.3-2.5-3.5-5.5-3.5-9.1c0-3.8,1.4-7,4.3-9.5
		c2.9-2.5,9.1-4.2,18.5-5.1v-3.7c0-2.4-0.8-4.5-2.4-6s-3.5-2.4-5.9-2.4c-3.3,0-7.1,1.7-11.4,5V307.5L169.4,307.5z"/>
	<path class="st1" d="M232.6,339.2c1.2,1.4,2.5,2.5,3.9,3.2s2.9,1.1,4.4,1.1c3.4,0,6.1-1.6,8.3-4.9c2.2-3.2,3.2-7.5,3.2-12.6
		c0-4.8-0.9-8.8-2.8-12.2c-1.9-3.3-4.4-5-7.5-5c-2.8,0-5,1.3-6.8,4c-1.8,2.6-2.7,5.7-2.7,9.1L232.6,339.2L232.6,339.2z M232.6,367.7
		h-5.7v-63.1h5.2l0.6,6.1c1.5-2.4,3.2-4.2,5-5.4s3.8-1.8,5.8-1.8c4.6,0,8.2,2.1,10.9,6.4c2.7,4.3,4,9.5,4,15.7
		c0,7.5-1.7,13.2-5.2,17.1c-3.4,3.9-7.2,5.8-11.4,5.8c-1.6,0-3.2-0.3-4.7-1c-1.5-0.7-3-1.7-4.4-3.1L232.6,367.7L232.6,367.7z"/>
	<path class="st1" d="M287.2,325.4c-7.4,0.9-12.1,2.2-14.1,3.8c-2,1.6-2.9,3.7-2.9,6.3c0,2.3,0.7,4.2,2.2,5.7
		c1.4,1.5,3.3,2.2,5.4,2.2c2.7,0,5-1.1,6.8-3.4c1.8-2.3,2.7-5.2,2.7-8.8V325.4L287.2,325.4z M267.6,307.5c4.6-2.6,8.5-3.9,11.6-3.9
		c4.5,0,7.9,1.3,10.2,3.9c2.3,2.6,3.5,6.2,3.5,10.7V341c0,1.7,0.8,2.5,2.4,2.5c0.8,0,1.6-0.2,2.5-0.7v4.8c-1.5,0.7-2.9,1-4.5,1
		c-3.9,0-6-2.3-6.1-6.9c-1.5,2.3-3.1,4-4.9,5.2c-1.8,1.2-3.8,1.7-5.9,1.7c-3.4,0-6.3-1.2-8.6-3.7c-2.3-2.5-3.5-5.5-3.5-9.1
		c0-3.8,1.4-7,4.3-9.5s9.1-4.2,18.5-5.1v-3.7c0-2.4-0.8-4.5-2.4-6c-1.6-1.6-3.5-2.4-5.9-2.4c-3.3,0-7.1,1.7-11.4,5V307.5
		L267.6,307.5z"/>
	<path class="st1" d="M305.9,291.8h5.1v12.9h8.1v4.9H311v30.1c0,1.3,0.3,2.2,1,2.9s1.6,1,3,1c1.2,0,2.6-0.5,4.2-1.4v5.6
		c-2,0.7-3.9,1-5.8,1c-2.3,0-4.2-0.7-5.7-2c-1.5-1.4-2.2-3.4-2.2-6.1v-30.9h-5.8v-4.9h5.8L305.9,291.8L305.9,291.8z"/>
	<path class="st1" d="M328.1,291.8h5.1v12.9h8.1v4.9h-8.1v30.1c0,1.3,0.3,2.2,1,2.9s1.6,1,3,1c1.2,0,2.6-0.5,4.2-1.4v5.6
		c-2,0.7-3.9,1-5.8,1c-2.3,0-4.2-0.7-5.7-2c-1.5-1.4-2.2-3.4-2.2-6.1v-30.9h-5.8v-4.9h5.8L328.1,291.8L328.1,291.8z"/>
	<path class="st1" d="M372,319.5c-0.1-3.6-1-6.3-2.8-8c-1.7-1.8-3.7-2.7-6-2.7s-4.5,0.9-6.5,2.7c-2,1.8-3.4,4.5-4.3,8H372z
		 M376.6,343.1c-4.6,3.7-9,5.6-13.4,5.6c-5.1,0-9.2-2.1-12.4-6.2c-3.1-4.1-4.7-9.5-4.7-16.1s1.6-12.3,4.9-16.5s7.4-6.3,12.4-6.3
		c4.4,0,8,1.7,10.6,5.1s4,7.7,4,12.9v2.8h-26.1v2.2c0,5.6,1.2,9.8,3.5,12.6c2.3,2.8,5,4.3,8.2,4.3c4.3,0,8.7-2.4,13-7.2L376.6,343.1
		L376.6,343.1z"/>
	<path class="st1" d="M258,423.8c-1.2-1.5-2.5-2.5-3.9-3.2c-1.4-0.7-2.9-1.1-4.5-1.1c-3.4,0-6.2,1.6-8.4,4.8
		c-2.2,3.2-3.4,7.4-3.4,12.7c0,4.9,1,9,2.9,12.2c2,3.2,4.5,4.8,7.5,4.8c2.7,0,5-1.2,6.9-3.6c1.9-2.4,2.8-5.4,2.8-9L258,423.8
		L258,423.8z M258,395.2h5.7v63H258v-6c-1.4,2.3-3,4.1-4.8,5.3c-1.8,1.2-3.8,1.8-5.9,1.8c-4.5,0-8.2-2.2-11-6.7s-4.2-9.6-4.2-15.5
		c0-6.3,1.6-11.7,4.6-16.2c3.1-4.5,7-6.7,11.8-6.7c1.5,0,3.1,0.4,4.7,1c1.6,0.7,3.2,1.7,4.8,3.1L258,395.2L258,395.2z"/>
	<path class="st1" d="M297.4,430.1c-0.1-3.6-1-6.3-2.8-8c-1.7-1.8-3.7-2.7-6-2.7s-4.5,0.9-6.5,2.7c-2,1.8-3.4,4.5-4.3,8H297.4z
		 M302,453.6c-4.6,3.7-9,5.6-13.4,5.6c-5.1,0-9.2-2.1-12.4-6.2c-3.1-4.1-4.7-9.5-4.7-16.1s1.6-12.3,4.9-16.5
		c3.3-4.2,7.4-6.3,12.4-6.3c4.4,0,8,1.7,10.6,5.1s4,7.7,4,12.9v2.8h-26.1v2.2c0,5.6,1.2,9.8,3.5,12.6c2.3,2.8,5.1,4.3,8.2,4.3
		c4.3,0,8.7-2.4,13-7.2L302,453.6L302,453.6z"/>
	<polygon class="st1" points="327.4,415.2 333.6,415.2 343.8,451 353.6,415.2 359.7,415.2 346.4,458.2 340.9,458.2 	"/>
	<path class="st1" d="M388.8,430.1c-0.1-3.6-1-6.3-2.8-8s-3.7-2.7-6-2.7s-4.5,0.9-6.5,2.7c-2,1.8-3.4,4.5-4.3,8H388.8z M393.5,453.6
		c-4.6,3.7-9,5.6-13.4,5.6c-5.1,0-9.2-2.1-12.4-6.2c-3.1-4.1-4.7-9.5-4.7-16.1s1.6-12.3,4.9-16.5s7.4-6.3,12.4-6.3
		c4.4,0,8,1.7,10.6,5.1s4,7.7,4,12.9v2.8h-26.1v2.2c0,5.6,1.2,9.8,3.5,12.6c2.3,2.8,5,4.3,8.2,4.3c4.3,0,8.7-2.4,13-7.2L393.5,453.6
		L393.5,453.6z"/>
	<rect x="402.6" y="395.2" class="st1" width="5.7" height="63"/>
	<path class="st1" d="M433.3,419.5c-3.8,0-6.6,1.6-8.5,4.8s-2.9,7.5-2.9,13c0,4.7,0.9,8.7,2.8,11.9c1.9,3.2,4.5,4.8,7.9,4.8
		c3.2,0,5.8-1.5,7.9-4.5c2.1-3,3.1-7.3,3.1-13s-1-9.6-3-12.6C438.6,421,436.1,419.5,433.3,419.5L433.3,419.5z M432.9,414.2
		c4.7,0,8.7,2.1,11.8,6.2c3.2,4.1,4.7,9.5,4.7,16.3c0,3.9-0.6,7.6-1.9,11.1s-3.2,6.3-5.8,8.3c-2.6,2.1-5.6,3.1-9.1,3.1
		c-5.1,0-9.2-2.1-12.2-6.4s-4.4-9.6-4.4-15.9c0-5.1,0.9-9.5,2.8-13.2c1.9-3.7,4.1-6.2,6.8-7.5C428.4,414.8,430.8,414.2,432.9,414.2
		L432.9,414.2z"/>
	<path class="st1" d="M480.2,415.2h5.7v43h-5.7v-5.9c-1.6,2.3-3.3,4-5.2,5.2c-1.9,1.2-3.9,1.7-6.1,1.7c-3.7,0-6.5-1.2-8.6-3.8
		c-2.1-2.5-3.1-5.8-3.1-10v-30.2h5.7v30.3c0,2.9,0.6,5,1.8,6.4s3,2.1,5.4,2.1c3,0,5.4-1.3,7.3-3.8c1.9-2.5,2.8-5.8,2.8-9.8V415.2z"
		/>
	<path class="st1" d="M502,421.6c1.4-2.5,2.9-4.4,4.5-5.6c1.7-1.2,3.5-1.8,5.5-1.8c1.5,0,3,0.3,4.5,1v5.4c-1.8-0.7-3.2-1-4.4-1
		c-2.9,0-5.3,1.3-7.2,4c-1.9,2.7-2.9,5.7-2.9,9.2v25.4h-5.5v-43h5L502,421.6L502,421.6z"/>
	<path class="st1" d="M523.9,448.8c4.2,3.5,8.2,5.2,12.1,5.2c3,0,5.4-0.8,7.3-2.2s2.9-3.4,2.9-5.7c0-1.7-0.7-3-1.9-4.2
		c-1.3-1.1-3.8-2.2-7.4-3.3c-4.5-1.4-7.8-2.9-9.9-4.6c-2.1-1.8-3.1-4.2-3.1-7.3c0-3.5,1.4-6.5,4.2-8.9s6.3-3.6,10.4-3.6
		c3.3,0,7.1,1.2,11.3,3.5v6.4c-3.6-3.1-7.3-4.7-11.1-4.7c-2.6,0-4.8,0.7-6.4,2.1c-1.7,1.4-2.5,3.1-2.5,5c0,1.7,0.8,3,2.3,4.1
		c1.5,1.1,4,2.1,7.4,3.1c8.4,2.4,12.6,6.4,12.6,12c0,3.8-1.5,7-4.6,9.6c-3.1,2.6-6.8,3.9-11.2,3.9c-4.1,0-8.2-1.3-12.3-4
		L523.9,448.8L523.9,448.8z"/>
	<g>
		<defs>
			<rect id="SVGID_1_" x="-10.1" y="-100.3" width="601.7" height="843.5"/>
		</defs>
		<clipPath id="SVGID_00000024694181197799966030000007246345391702129812_">
			<use xlink:href="#SVGID_1_"  style="overflow:visible;"/>
		</clipPath>
		<g style="clip-path:url(#SVGID_00000024694181197799966030000007246345391702129812_);">
			<path class="st1" d="M81.5,25.8c9.2,3.2,16.1,10.4,21.2,19.3c2.4,4.2,4.9,6.2,9.9,4.2c11-4.5,21.8-3.5,32.1,2.2
				c5.1,2.9,7.5,0.8,9.3-3.8c3-7.5,6.1-15,9.7-23.7c10.8,10.4,12.1,22.8,13.5,34.8c2.7,24.1-0.6,47.3-12.1,69.2
				c-5.8,11.1-6.7,23-3.1,35.2c0.8,2.6,1.1,5.5,2,10.5c-13.2-13.5-15.3-33.4-6.5-51.4c8.6-17.5,13-35.7,11.9-55.2
				c-0.4-6.2-1.3-12.4-2.2-20.8c-2.2,3.9-3.5,5.9-4.5,8c-3.5,7.3-8.2,9.7-16,5.6c-10.6-5.5-21.7-4.7-32.2,0.5
				c-6.5,3.2-10.3,2-13.5-4.7c-3.1-6.4-7.7-12.1-10.8-16.9C88,53,86.2,67.2,84,81.4c-2.3,14.9-1.4,29.2,6.4,42.4
				c12.5,21.3,12.2,42.7,2.1,64.7C82.1,211,71,233.2,61.9,256.1c-9.1,22.9-9.9,47.1-4.5,71.2c8.2,36.9,38.1,74,93.2,65.8
				c5.9-0.9,11.1-1.4,11.2,7.8c-26.3,6.8-51.3,3.9-73.1-12.8C54.4,362,42.1,326.2,46,284c2.7-29.5,15.2-55.4,29-81
				c5.7-10.6,10.2-21.8,14.8-32.9c5.4-13.3,3.8-26.6-3.3-38.5c-11.2-18.9-12.8-38.5-9.1-59.7C79.9,56.9,80.1,41.4,81.5,25.8"/>
			<path class="st1" d="M93.9,540.7c-5.9,14.7-22,22-37.7,17.4c-16.4-4.8-25.8-21-21.9-38.1c4.3-18.8,16.5-31,33.9-38.4
				c22-9.2,45-9.9,68.4-8.9c13,0.5,26.2,0.5,39-1.5c18-2.9,28.1-15.7,31.6-32.9c3.6-17.9,0.4-34.5-15.6-45.8
				c-7.4-5.2-15.7-9.2-23.6-13.7c0.2-0.8,0.4-1.6,0.6-2.3c4.8,1,9.8,1.6,14.4,3.2c24.7,8.4,39.3,31.2,36.1,56
				c-3,23.3-22.9,42.2-48.3,43.8c-23.8,1.5-47.7,1.2-71.6,2.1c-17.5,0.6-32.9,6.5-44.8,20c-8,9.2-11.2,19.8-9.6,31.8
				c1.3,9.5,7.3,15.5,16.1,18.1c8.2,2.4,15.1-0.9,20.1-7.5C84.7,539.1,87.9,535,93.9,540.7"/>
		</g>
	</g>
</g>
</svg>
